<?xml version="1.0" encoding="utf-8"?>
<!-- Generator: Adobe Illustrator 27.5.0, SVG Export Plug-In . SVG Version: 6.00 Build 0)  -->
<svg version="1.1" xmlns="http://www.w3.org/2000/svg" xmlns:xlink="http://www.w3.org/1999/xlink" x="0px" y="0px"
	 viewBox="0 0 750 500" style="enable-background:new 0 0 750 500;" xml:space="preserve">
<g id="BACKGROUND">
	<g>
		<rect x="125" style="fill:#FFFFFF;" width="500" height="500"/>
	</g>
</g>
<g id="OBJECTS">
	<g>
		<path style="fill:#D1B792;" d="M382.438,407.213c0.161-0.45,0.293-0.907,0.443-1.359c-0.333-0.173-0.573-0.517-0.424-0.922
			c0.495-1.337,1.04-2.633,1.685-3.88c0.012-0.029,0.024-0.057,0.036-0.086c0.018-0.264,0.043-0.528,0.071-0.793
			c-0.591-2.221-0.887-4.513-0.748-6.791c-0.157-1.008-0.295-2.016-0.386-3.024l-12.901-15.469l-1.44-1.726l-7.934-9.501
			l-1.452-1.738l-9.123-10.941l-1.555-1.863l-5.911-7.088l-1.475-1.761l-11.993-14.382l-8.003,51.825c0,0,5.419,7.477,13.262,15.983
			c0.503,0.549,1.018,1.109,1.543,1.669c2.458,2.595,5.122,5.259,7.9,7.786c0.572,0.514,1.143,1.029,1.715,1.532
			c6.345,5.568,13.216,10.335,19.687,12.302c10.092,3.064,15.452-2.519,18.289-8.842
			C383.155,408.518,382.164,407.976,382.438,407.213z"/>
		<g>
			<g>
				<path style="fill:#DD5533;" d="M342.798,342.031c-5.373,6.242-10.735,12.485-16.052,18.784c-0.949,1.12-2.561-0.503-1.612-1.623
					c5.351-6.334,10.758-12.633,16.189-18.921L342.798,342.031z"/>
			</g>
			<g>
				<path style="fill:#DD5533;" d="M350.264,350.983c-1.566,2.664-3.018,5.408-4.527,8.072c-4.47,7.9-10.049,14.622-17.504,19.859
					c-1.2,0.846-2.344-1.132-1.155-1.966c8.392-5.899,13.776-13.742,18.647-22.591c0.972-1.761,1.955-3.521,2.984-5.236
					L350.264,350.983z"/>
			</g>
			<g>
				<path style="fill:#DD5533;" d="M360.839,363.662c-3.681,3.59-6.574,8.14-9.318,12.473c-4.459,7.02-9.558,13.319-15.389,19.23
					c-0.4,0.423-0.823,0.846-1.246,1.269c-1.04,1.029-2.664-0.583-1.612-1.623c0.446-0.434,0.88-0.88,1.315-1.315
					c3.098-3.133,6.094-6.368,8.803-9.821c3.087-3.91,5.625-8.163,8.334-12.324c2.229-3.43,4.722-6.814,7.66-9.626L360.839,363.662z
					"/>
			</g>
			<g>
				<path style="fill:#DD5533;" d="M370.214,374.889c-9.741,8.472-17.344,19.024-24.466,29.794
					c-0.572-0.503-1.143-1.018-1.715-1.532c7.214-10.85,14.908-21.425,24.741-29.988L370.214,374.889z"/>
			</g>
		</g>
		<g>
			<path style="fill:#DDC8AB;" d="M353.716,440.021l-92.034-2.858l-2.104-7.98c-1.566-1.726-3.018-3.567-4.333-5.488
				c-0.617-0.903-1.212-1.818-1.761-2.755c0,0,0,0-0.012,0c-0.103-0.194-0.217-0.377-0.331-0.572
				c-2.527-4.379-4.39-9.112-6.014-13.902c-1.692-4.973-3.144-10.038-4.585-15.103c-2.938-10.278-5.854-20.682-6.357-31.36
				c-0.514-10.678,1.589-21.814,7.877-30.457c3.739-5.133,8.666-9.055,14.142-12.245c6.402-3.738,13.582-6.482,20.556-9.009
				c0,0,30.365,6.345,44.405,12.53c1.978,0.869,3.624,1.738,4.825,2.584c3.99,2.813,6.345,11.216,7.729,20.853
				c0.103,0.743,0.206,1.486,0.297,2.241c0.64,5.019,1.04,10.289,1.292,15.206c0.034,0.777,0.069,1.532,0.091,2.286
				c0.286,6.597,0.309,12.359,0.309,15.754v0.823c0,0.423,0.023,0.903,0.08,1.452c0.309,3.247,1.486,8.597,3.075,14.771
				c0.194,0.743,0.389,1.486,0.594,2.252c1.795,6.791,4.002,14.36,6.048,21.128c0.229,0.755,0.457,1.509,0.686,2.241
				C351.213,432.338,353.716,440.021,353.716,440.021z"/>
		</g>
		<g>
			<g style="display:none;">
				<g style="display:inline;">
					<path style="fill:#CF8C69;" d="M353.14,279.566c-1.743,1.543-3.439,3.14-5.056,4.814c1.186-3.167,2.373-6.334,3.559-9.502
						c-0.571-2.255-1.754-4.306-3.159-2.655c-1.906,3.627-3.813,7.253-5.719,10.88c1.299-4.235,2.598-8.47,3.897-12.705
						c-0.785-1.977-2.888-3.515-4.767-2.804c-2.003,5.027-4.006,10.053-6.008,15.08c-0.274-5.74,0.722-11.414,2.113-17.015
						c0.002-0.172-0.006-0.346-0.051-0.525c-0.14-0.558-0.426-1.097-0.78-1.547c-0.645-0.819-1.515-1.321-2.386-1.042
						c-0.081,0.207-0.159,0.413-0.23,0.616c-2.116,6.022-4.231,12.044-6.347,18.065c-0.233,0.663-0.489,1.361-1.034,1.805
						c-0.332,0.271,17.869,11.919,17.869,11.919c4.267-4.074,8.02-8.68,11.183-13.66
						C355.587,280.332,354.593,279.692,353.14,279.566z"/>
				</g>
				<path style="display:inline;fill:#CF8C69;" d="M319.738,285.913c0,0,6.331-0.797,8.037-3.621
					c1.706-2.824,17.24,7.316,17.24,7.316l11.21-8.317c0,0-10.206,22.258-13.619,24.868c-3.413,2.61-10.929,1.405-10.929,1.405
					L319.738,285.913z"/>
			</g>
			<path style="fill:#322020;" d="M360.287,288.049l-13.519,16.733c-0.678,0.84-1.909,0.97-2.748,0.292l-32.309-26.104
				c-0.84-0.678-0.97-1.909-0.292-2.749l13.519-16.733c0.678-0.84,1.909-0.97,2.748-0.292l32.309,26.104
				C360.835,285.979,360.965,287.21,360.287,288.049z"/>
			<path style="fill:#DDC8AB;" d="M355.324,287.671c-2.213,2.881-7.451,9.937-9.697,12.967c-0.579,0.782-1.685,0.929-2.453,0.331
				l-28.816-22.424c-0.775-0.603-0.895-1.729-0.264-2.481l11.78-14.052c0.625-0.745,1.741-0.831,2.472-0.189l26.743,23.494
				C355.775,285.92,355.88,286.947,355.324,287.671z"/>
			<g>
				<g>
					<path style="fill:#A6634B;" d="M315.637,281.054l5.864-2.149c0.289,0.623,0.55,1.331,0.776,2.103
						c0.115,0.681,0.288,1.474,0.511,2.272c0,0,0,0,0.004,0.01c0.628,2.302,1.703,4.712,3.446,5.312
						c1.241,0.966,2.65,1.442,4.207,2.097c2.689,1.131,4.853,3.064,6.784,5.211c2.495,2.774,4.143,5.675,5.195,8.885l-0.529,1.774
						l-9.92,1.359l-2.778-4.402c-4.848-3.725-8.677-8.775-10.938-14.458L315.637,281.054z"/>
				</g>
				<path style="fill:#CF8C69;" d="M315.637,281.054c0,0,7.918,8.329,7.156,2.237c-0.004-0.01-0.004-0.01-0.004-0.01
					c-0.057-0.446-0.158-0.972-0.316-1.574c-0.058-0.236-0.127-0.467-0.196-0.698c-0.226-0.772-0.487-1.48-0.776-2.103
					c-2.791-6.111-7.937-6.028-7.937-6.028L315.637,281.054z"/>
			</g>
			<g>
				<path style="fill:#A6634B;" d="M330.606,260.283c0.403,2.781,1.132,5.516,2.167,8.128c0.281,0.71,0.596,1.428,1.126,1.979
					c0.53,0.551,1.321,0.908,2.064,0.73c0.655-0.157,1.166-0.706,1.419-1.329c0.253-0.624,0.282-1.316,0.243-1.988
					c-0.095-1.635-0.568-3.224-1.097-4.773c-0.582-1.704-1.396-3.557-3.059-4.247c-0.697-0.289-1.565-0.311-2.149,0.167
					c-0.843,0.69-0.719,1.993-0.5,3.061"/>
			</g>
			<g>
				<path style="fill:#A6634B;" d="M335.993,263.377c0.783,3.149,1.84,6.225,3.065,9.23c0.279,0.686,0.579,1.386,1.097,1.915
					s1.309,0.857,2.013,0.626c0.698-0.228,1.137-0.937,1.308-1.651c0.356-1.487-0.201-3.023-0.749-4.45
					c-0.345-0.897-0.69-1.796-1.101-2.665c-0.613-1.295-1.456-2.596-2.776-3.15c-0.445-0.187-0.973-0.273-1.401-0.05
					c-0.414,0.215-0.648,0.683-0.703,1.146c-0.055,0.463,0.042,0.93,0.141,1.386"/>
			</g>
			<g>
				<path style="fill:#A6634B;" d="M342.232,268.143c0.632,2.07,1.263,4.14,1.895,6.21c0.259,0.849,0.538,1.733,1.157,2.37
					c0.619,0.637,1.689,0.93,2.408,0.409c0.203-0.147,0.363-0.346,0.493-0.56c0.57-0.941,0.543-2.149,0.189-3.191
					c-0.354-1.042-1-1.955-1.638-2.851c-0.684-0.962-1.447-1.983-2.574-2.333c-0.188-0.058-0.389-0.096-0.581-0.055
					c-0.397,0.086-0.652,0.486-0.744,0.882c-0.092,0.396-0.067,0.81-0.143,1.209"/>
			</g>
			<g>
				<path style="fill:#A6634B;" d="M347.627,273.494c0.017-0.1,0.111-0.181,0.212-0.182c0.354,1.258,0.709,2.516,1.063,3.774
					c0.409,1.453,0.843,2.954,1.811,4.113c0.439,0.526,1.137,0.996,1.771,0.736c0.467-0.192,0.708-0.715,0.796-1.213
					c0.254-1.445-0.413-2.884-1.154-4.151c-0.597-1.021-1.262-2.017-2.133-2.816c-0.336-0.308-0.743-0.6-1.199-0.577
					c-0.455,0.023-0.885,0.528-0.671,0.931"/>
			</g>
		</g>
		<g>
			<path style="fill:#693B29;" d="M279.583,287.409c-11.265-10.838-17.819-27.518-14.602-43.085
				c3.217-15.566,15.168-27.329,32.754-27.903c17.585-0.575,25.627,2.142,38.004-1.468c9.576-2.801,22.558-0.111,28.054,5.937
				c0.633,0.696,1.235,1.568,1.089,2.497c-0.108,0.695-0.615,1.255-1.125,1.74c-1.624,1.545-3.523,2.801-5.582,3.689
				c4.267,0.618,8.281,2.845,11.064,6.137c0.959,1.134,1.8,2.456,1.933,3.935c0.394,4.386-4.989,6.694-9.292,7.632
				c0,0,0.931-6.004-6.242-7.634c-7.172-1.63-53.468-2.934-53.468-2.934s-6.194,10.759-6.846,12.063
				C294.673,249.318,279.583,287.409,279.583,287.409"/>
		</g>
		<g>
			<path style="fill:#CF8C69;" d="M348.675,249.096c-3.391,5.686-5.555,12.076-6.39,18.648c-0.339,2.843-0.443,5.712-0.73,8.581
				c-0.156,1.904-0.417,3.782-0.861,5.634c-0.339,1.408-0.783,2.79-1.33,4.147c-2.243,5.634-6.025,10.667-9.728,15.545
				c-0.704,0.913-1.435,1.852-2.478,2.295c-0.704,0.313-1.487,0.365-2.269,0.417c-5.399,0.287-10.902,0.574-16.145-0.756
				c-5.242-1.33-10.276-4.538-12.467-9.494l-18.231,10.954c0,0,2.53-11.685,2.843-13.719l-4.147-14.971l-3.6-23.474
				c0,0,8.503-25.117,29.029-29.029C322.697,219.963,348.675,249.096,348.675,249.096z"/>
		</g>
		<g>
			<path style="fill:#CF8C69;" d="M308.692,290.593l-1.364,13.015l-0.294,2.921v5.138c0,0-0.187,6.494-0.187,7.277
				c0,0.756-30.587-8.503-30.587-8.503l8.021-23.291l7.086,0.991l0.428,0.078L308.692,290.593z"/>
		</g>
		<g>
			<path style="fill:#693B29;" d="M290.529,260.079c0,0,3.315,2.537,5.311,5.829c0.262,0.432,0.573,0.88,1.049,1.05
				c1.252,0.449,2.164-1.232,2.332-2.551c0.44-3.456,0.05-7.234,1.964-10.145c1.241-1.888,3.266-3.088,5.22-4.222
				c6.127-3.555,17.557-5.41,15.608-3.553c-1.949,1.856-4.318,3.452-5.396,5.919c5.577-0.5,10.895-3.414,14.317-7.845
				c0.07,2.369-1.03,4.744-2.882,6.222c5.83,0.73,11.79,1.456,17.538,0.239c5.748-1.218,11.347-4.762,13.426-10.257
				c0.653-1.725,0.263-4.448-1.58-4.376l-15.816-9.566c0,0-28.69-5.216-30.646-5.216c-1.956,0-26.082,3.912-26.082,3.912
				l-12.389,13.041l-4.89,11.737l7.825,29.668l4.146,7.444C283.269,284.28,286.898,271.995,290.529,260.079z"/>
		</g>
		<g>
			<path style="fill:#A6634B;" d="M291.466,275.775c-5.62,0.267-8.454-6.199-8.451-10.503c0.002-2.054,0.974-4.411,3.656-5.533
				c2.682-1.121,5.51,0.109,6.011,2.248c0.469,2.001-0.944,5.696-0.944,7.652C291.738,271.596,292.714,275.716,291.466,275.775z"/>
		</g>
		<g>
			<g>
				<path style="fill:#A6634B;" d="M325.756,287.007c1.145-0.95,2.902,1.575,4.162,1.611c1.063,0.03,2.104-1.077,2.901-1.635
					c1.436-1.005,3.895-2.008,3.124-4.1c-0.449-1.219-1.651-2.271-2.469-3.235c-1.549-1.824-2.453-3.745-2.525-6.197
					c-0.126-4.336,2.291-8.005,5.502-10.698c0.247-0.207-0.109-0.559-0.354-0.354c-4.262,3.575-7.385,9.63-4.722,15.116
					c0.617,1.271,1.582,2.264,2.491,3.325c0.879,1.026,2.321,2.298,1.299,3.853c-0.36,0.547-1.983,1.428-2.598,1.858
					c-1.462,1.023-2.381,1.651-4.345,0.49c-0.35-0.207-0.482-0.493-0.91-0.678c-0.82-0.353-1.261-0.249-1.91,0.29
					C325.154,286.859,325.51,287.211,325.756,287.007L325.756,287.007z"/>
			</g>
		</g>
		<g>
			<path style="fill:#693B29;" d="M337.595,261.591c0.497-0.505,0.995-1.011,1.492-1.517c0.782-0.794,1.573-1.596,2.521-2.182
				c0.948-0.586,2.082-0.943,3.181-0.759c-0.195,1.158-0.391,2.316-0.586,3.474c-0.088,0.52-0.216,1.102-0.664,1.38
				c-0.251,0.156-0.558,0.183-0.853,0.206c-1.749,0.138-3.498,0.276-5.246,0.414"/>
		</g>
		<g>
			<path style="fill:#693B29;" d="M327.864,261.735c-0.491-0.74-0.159-1.729-0.28-2.609c-0.137-0.989-0.868-1.818-1.735-2.312
				c-0.867-0.494-1.865-0.702-2.847-0.878c-4.713-0.841-9.847-1.009-13.996,1.379c4.705,1.026,9.411,2.053,14.116,3.079
				c1.496,0.326,3.037,0.672,4.285,1.559"/>
		</g>
		<g>
			<path style="fill:#F5F2E3;" d="M308.088,266.593c3.269-1.419,5.418-3.157,10.4-2.12c4.983,1.037,5.593,5.729,5.523,5.862
				c-0.082,0.157-5.777,1.451-9.054,0.622c-3.277-0.829-4.745-2.242-6.498-3.904c-0.141-0.05-0.313-0.138-0.297-0.286
				c0.016-0.148,0.317-0.014,0.182,0.049"/>
		</g>
		<g>
			<path style="fill:#F5F2E3;" d="M332.34,268.729c1.56-1.341,3.403-2.258,5.337-2.656c0.63-0.129,1.307-0.198,1.892,0.109
				c1.033,0.542,1.374,1.989,1.594,3.253c0.068,0.39,0.128,0.827-0.066,1.154c-0.095,0.16-0.24,0.272-0.385,0.374
				c-1.422,1.006-3.171,1.463-4.83,1.106c-1.658-0.357-3.196-1.568-3.954-3.283"/>
		</g>
		<g>
			<path style="fill:#693B29;" d="M336.739,271.956c-0.172-0.014-0.265-0.27-0.302-0.492c-0.301-1.776,0.794-3.731,2.172-3.879
				c0.463-0.05,0.969,0.105,1.27,0.572c0.147,0.228,0.233,0.512,0.298,0.798c0.142,0.624,0.188,1.314-0.002,1.915
				c-0.19,0.601-0.663,1.076-1.154,1.003"/>
		</g>
		<g>
			<path style="fill:#693B29;" d="M318.696,271.163c-0.389,0.219-0.912,0.06-1.206-0.276c-0.293-0.337-0.391-0.804-0.388-1.251
				c0.013-1.701,1.536-3.248,3.237-3.289c0.423-0.01,0.868,0.07,1.199,0.334c0.579,0.461,0.637,1.304,0.648,2.044
				c0.01,0.722-0.008,1.522-0.5,2.049c-0.765,0.82-2.114,0.479-3.202,0.75"/>
		</g>
		<g>
			<g>
				<path style="fill:#A6634B;" d="M308.214,266.809c3.588-1.607,6.853-3.197,10.89-1.923c1.686,0.532,3.082,1.608,3.93,3.171
					c0.174,0.321,0.973,1.761,0.729,2.176c-0.043,0.074-1.625,0.306-1.988,0.368c-1.638,0.28-3.349,0.462-5.015,0.359
					c-1.947-0.121-3.873-0.777-5.497-1.858c-0.634-0.422-1.202-0.909-1.764-1.417c0.072,0.065-1.521-1.181-1.396-0.803
					c0.1,0.304,0.583,0.174,0.482-0.133c-0.011-0.035-0.023-0.069-0.034-0.104c-0.039-0.12-0.176-0.224-0.307-0.175
					c-0.049,0.018-0.098,0.036-0.147,0.055c-0.157,0.059-0.226,0.214-0.149,0.367c0.568,1.137,2.473,2.312,3.58,2.964
					c1.788,1.052,3.82,1.59,5.887,1.624c1.143,0.019,6.409,0.119,6.851-1.248c0.201-0.623-0.513-1.91-0.797-2.429
					c-0.784-1.431-2.027-2.55-3.543-3.159c-4.336-1.741-8.044-0.023-11.961,1.731C307.669,266.509,307.923,266.94,308.214,266.809
					L308.214,266.809z"/>
			</g>
		</g>
		<g>
			<g>
				<path style="fill:#A6634B;" d="M332.517,268.906c2.056-1.681,8.047-4.845,8.315,0.116c0.142,2.628-2.944,3.226-4.884,2.807
					c-1.741-0.376-3.024-1.611-3.804-3.169c-0.144-0.288-0.576-0.035-0.432,0.252c1.026,2.047,2.926,3.511,5.284,3.528
					c1.628,0.011,4.502-0.702,4.449-2.704c-0.039-1.489-0.689-3.594-2.33-3.968c-2.33-0.531-5.269,1.409-6.952,2.785
					C331.914,268.756,332.27,269.108,332.517,268.906L332.517,268.906z"/>
			</g>
		</g>
		<g>
			<path style="fill:#94473F;" d="M319.323,292.752c1.94-0.803,3.879-1.607,5.819-2.41c0.247-0.103,0.527-0.206,0.775-0.106
				c0.353,0.142,0.443,0.6,0.715,0.865c0.402,0.393,1.08,0.265,1.572-0.007c0.493-0.271,0.945-0.663,1.501-0.745
				c0.637-0.093,1.273,0.258,1.691,0.746c0.419,0.488,0.66,1.1,0.895,1.699c-4.277-0.092-8.553-0.167-12.83-0.224"/>
		</g>
		<g>
			<path style="fill:#B05A52;" d="M319.408,292.598c2.173,2.726,5.958,4.056,9.359,3.29c1.558-0.351,3.195-1.334,3.437-2.913"/>
		</g>
		<g>
			<path style="fill:#A6634B;" d="M307.361,303.607l-0.287,2.921v4.982c-4.382-2.06-8.164-5.321-10.85-9.363
				c-2.738-4.147-4.303-9.051-4.434-14.006c-0.052-1.017,0-2.06,0.078-3.078c-0.052,1.07,0.078,2.139,0.339,3.156
				c0.47,2.034,1.434,3.938,2.713,5.581c1.878,2.504,4.356,4.538,6.86,6.442C303.501,301.547,305.353,302.851,307.361,303.607z"/>
		</g>
		<g>
			<g>
				<path style="fill:#813831;" d="M319.281,292.905c2.464-0.221,4.688-0.407,7.148-0.134c1.909,0.212,3.851-0.357,5.715,0.209
					c0.154,0.047,0.22-0.194,0.066-0.241c-2.012-0.611-4.365-0.173-6.454-0.349c-2.177-0.184-4.305,0.07-6.475,0.265
					C319.122,292.669,319.121,292.919,319.281,292.905L319.281,292.905z"/>
			</g>
		</g>
		<g style="opacity:0.38;">
			<path style="fill:#B05A52;" d="M307.586,285.393c-1.298-0.787-2.475-1.799-3.47-2.984c-0.207-0.246-0.409-0.505-0.536-0.806
				c-0.177-0.42-0.198-0.893-0.207-1.354c-0.021-0.98-0.002-1.985,0.326-2.901c0.587-1.638,2.108-2.753,3.715-3.162
				c1.607-0.409,3.296-0.206,4.915,0.145c1.358,0.294,2.725,0.704,3.865,1.541c1.139,0.837,2.027,2.168,2.075,3.638
				c0.049,1.51-0.783,2.917-1.831,3.941c-2.57,2.51-6.638,3.111-9.757,1.441L307.586,285.393z"/>
		</g>
		<g style="opacity:0.38;">
			<path style="fill:#B05A52;" d="M341.554,276.326c-0.156,1.904-0.417,3.782-0.861,5.634c-0.339,1.408-0.783,2.79-1.33,4.147
				c-1.409-1.67-2.295-3.782-2.478-5.973c-0.052-0.522-0.052-1.043,0.156-1.513c0.287-0.626,0.913-1.043,1.539-1.357
				C339.52,276.795,340.511,276.482,341.554,276.326z"/>
		</g>
		<g>
			<g>
				<path style="fill:#7A4930;" d="M327.179,222.798c6.203-2.348,12.723-3.257,19.332-2.695c0.321,0.027,0.319-0.473,0-0.5
					c-6.66-0.566-13.214,0.347-19.465,2.713C326.748,222.428,326.878,222.912,327.179,222.798L327.179,222.798z"/>
			</g>
		</g>
		<g>
			<g>
				<path style="fill:#7A4930;" d="M353.535,221.646c0.627-0.104,1.234-0.039,1.832,0.17c0.304,0.106,0.435-0.377,0.133-0.482
					c-0.689-0.241-1.38-0.288-2.098-0.169C353.085,221.216,353.219,221.698,353.535,221.646L353.535,221.646z"/>
			</g>
		</g>
		<g>
			<g>
				<path style="fill:#7A4930;" d="M336.065,229.16c2.198,0.214,4.242,0.981,6.001,2.328c1.608,1.231,4.441,4.026,3.164,6.296
					c-0.158,0.281,0.274,0.533,0.432,0.252c1.198-2.13-0.71-4.562-2.206-6.019c-2.015-1.962-4.605-3.086-7.39-3.357
					C335.745,228.629,335.747,229.129,336.065,229.16L336.065,229.16z"/>
			</g>
		</g>
		<g>
			<g>
				<path style="fill:#7A4930;" d="M349.882,237.128c0.447,1.772,0.048,3.572-1.125,4.979c-0.205,0.245,0.147,0.601,0.354,0.354
					c1.289-1.546,1.747-3.511,1.254-5.465C350.285,236.683,349.803,236.815,349.882,237.128L349.882,237.128z"/>
			</g>
		</g>
		<g>
			<g>
				<path style="fill:#7A4930;" d="M338.989,245.875c1.171-0.631,2.341-1.263,3.511-1.894c0.283-0.153,0.031-0.585-0.252-0.432
					c-1.171,0.631-2.341,1.263-3.511,1.894C338.454,245.596,338.706,246.027,338.989,245.875L338.989,245.875z"/>
			</g>
		</g>
		<g>
			<g>
				<path style="fill:#7A4930;" d="M327.917,242.423c2.087-1.299,3.139-3.679,2.72-6.097c-0.055-0.316-0.537-0.182-0.482,0.133
					c0.38,2.193-0.604,4.358-2.49,5.532C327.392,242.161,327.643,242.594,327.917,242.423L327.917,242.423z"/>
			</g>
		</g>
		<g>
			<g>
				<path style="fill:#7A4930;" d="M318.203,230.123c2.244,7.127-10.358,8.121-14.78,9.068c-4.216,0.903-8.319,2.36-11.243,5.669
					c-0.212,0.24,0.14,0.595,0.353,0.354c4.58-5.181,11.632-5.407,17.898-6.938c3.851-0.941,9.866-3.166,8.254-8.286
					C318.589,229.684,318.106,229.815,318.203,230.123L318.203,230.123z"/>
			</g>
		</g>
		<g>
			<g>
				<path style="fill:#7A4930;" d="M302.326,244.854c-2.801,0.861-5.161,2.519-6.935,4.85c-0.195,0.256,0.239,0.505,0.432,0.252
					c1.689-2.22,3.972-3.802,6.636-4.62C302.766,245.242,302.635,244.759,302.326,244.854L302.326,244.854z"/>
			</g>
		</g>
		<g>
			<g>
				<path style="fill:#7A4930;" d="M292.146,221.904c-5.376,0.907-9.411,4.567-13.137,8.299c-0.228,0.228,0.126,0.582,0.353,0.354
					c3.668-3.675,7.62-7.277,12.916-8.171C292.595,222.333,292.461,221.851,292.146,221.904L292.146,221.904z"/>
			</g>
		</g>
		<g>
			<g>
				<path style="fill:#7A4930;" d="M294.504,226.602c-3.652,1.235-6.854,3.292-9.488,6.107c-0.22,0.235,0.133,0.589,0.354,0.354
					c2.576-2.754,5.695-4.77,9.267-5.978C294.94,226.982,294.81,226.499,294.504,226.602L294.504,226.602z"/>
			</g>
		</g>
		<g>
			<g>
				<path style="fill:#7A4930;" d="M274.703,239.813c-2.16,0.844-3.167,3.612-3.979,5.601c-1.177,2.886-1.78,5.914-1.938,9.018
					c-0.016,0.322,0.484,0.321,0.5,0c0.127-2.489,0.535-4.927,1.328-7.292c0.698-2.081,1.967-5.964,4.222-6.845
					C275.132,240.18,275.003,239.696,274.703,239.813L274.703,239.813z"/>
			</g>
		</g>
		<g>
			<g>
				<path style="fill:#7A4930;" d="M276.716,248.193c-2.363,3.246-3.514,6.998-3.389,11.009c0.01,0.321,0.51,0.322,0.5,0
					c-0.123-3.936,1.004-7.574,3.321-10.757C277.337,248.185,276.903,247.935,276.716,248.193L276.716,248.193z"/>
			</g>
		</g>
		<g>
			<g>
				<path style="fill:#DD5533;" d="M337.402,363.993c-3.396,0.537-6.905,0.526-10.392,0.389c-7.523-0.286-14.954-0.217-22.477,0.091
					c-16.177,0.663-32.355,1.326-48.544,2.001c-1.475,0.057-1.463-2.229,0-2.286c15.434-0.64,30.857-1.269,46.291-1.909
					c7.443-0.309,14.863-0.629,22.317-0.286c4.23,0.194,8.563,0.412,12.713-0.286C337.345,362.484,337.379,363.239,337.402,363.993z
					"/>
			</g>
			<g>
				<path style="fill:#DD5533;" d="M337.791,382.023c-2.241,0.16-4.493,0.332-6.734,0.503c-9.455,0.732-18.898,1.475-28.353,2.207
					c-18.887,1.463-37.785,2.938-56.684,4.402c-1.475,0.114-1.463-2.172,0-2.287c18.898-1.463,37.797-2.938,56.684-4.402
					c9.455-0.732,18.898-1.475,28.353-2.207c2.218-0.172,4.436-0.343,6.654-0.492v0.823
					C337.711,380.994,337.733,381.474,337.791,382.023z"/>
			</g>
			<g>
				<path style="fill:#DD5533;" d="M341.46,399.046c-29.931,1.692-59.862,3.361-89.793,5.053c-1.475,0.08-1.463-2.206,0-2.287
					c29.737-1.681,59.462-3.35,89.199-5.019C341.06,397.537,341.255,398.28,341.46,399.046z"/>
			</g>
			<g>
				<path style="fill:#DD5533;" d="M348.194,422.415c-0.755,0.034-1.498,0.08-2.241,0.114c-11.318,0.595-22.637,1.155-33.967,1.566
					c-11.353,0.412-22.705,0.674-34.058,0.594c-5.602-0.034-11.215-0.114-16.818-0.377c-1.989-0.08-3.944-0.251-5.865-0.617
					c-2.184-0.389-4.287-1.063-6.288-2.195c-1.281-0.732-0.126-2.698,1.155-1.978c1.086,0.606,2.218,1.075,3.361,1.418
					c0.012,0,0.012,0,0.012,0c3.464,1.052,7.191,1.086,10.827,1.201c5.293,0.172,10.587,0.252,15.892,0.274
					c10.598,0.034,21.196-0.217,31.783-0.606c10.598-0.389,21.185-0.915,31.772-1.452c1.235-0.057,2.492-0.114,3.75-0.183
					C347.737,420.928,347.966,421.683,348.194,422.415z"/>
			</g>
			<g>
				<path style="fill:#DD5533;" d="M336.018,346.501c-11.799,1.075-23.711,1.406-35.499,2.035
					c-18.578,0.972-37.225,1.543-55.758-0.572c-1.441-0.172-1.452-2.458,0-2.287c18.155,2.081,36.436,1.566,54.649,0.629
					c12.039-0.629,24.237-0.949,36.31-2.046C335.824,345.003,335.927,345.746,336.018,346.501z"/>
			</g>
		</g>
		<path style="fill:#A6634B;" d="M331.977,307.929c0,0,16.785,77.406,19.834,88.457c3.049,11.052,10.437,22.464,28.582,14.863
			c14.1-5.907,0.381-32.393-7.241-46.493c-7.622-14.1-31.255-58.186-31.255-58.186L331.977,307.929z"/>
		<g>
			<path style="fill:#E6D2B8;" d="M272.475,348.159c-0.012,0.789-0.034,1.578-0.091,2.355c-0.046,0.812-0.114,1.612-0.194,2.412
				c-0.366,3.578-1.029,7.123-1.624,10.678c-0.126,0.766-0.251,1.521-0.366,2.287c-0.137,0.892-0.274,1.783-0.389,2.675
				c-0.377,2.904-0.606,5.819-0.743,8.746c-0.046,0.812-0.069,1.624-0.091,2.435c-0.149,4.161-0.137,8.346-0.172,12.519
				c0.011,0.812,0,1.612-0.012,2.424c-0.011,2.069-0.046,4.139-0.126,6.208c-0.137,3.556-0.4,7.191-1.795,10.472
				c-1.246,2.904-3.327,5.373-5.568,7.591c-5.213,5.179-11.467,9.318-18.27,12.073c-4.379,1.772-10.061,2.71-13.285-0.743
				c-1.543-1.669-2.126-3.99-2.561-6.22c-1.326-6.688-1.909-13.456-1.898-20.236c0-1.132,0.023-2.252,0.057-3.384
				c0.206-7.031,1.017-14.085,2.275-21.071c0.16-0.915,0.332-1.818,0.503-2.721c0.857-4.413,1.886-8.792,3.052-13.136
				c0.217-0.869,0.457-1.738,0.697-2.595c0.549-1.989,1.132-3.979,1.726-5.945c0.64-2.126,1.315-4.253,2.046-6.368
				c0.274-0.812,0.572-1.612,0.869-2.412c1.521-4.116,3.281-8.129,5.453-11.856c0.492-0.858,1.006-1.692,1.543-2.515
				c1.841-2.79,3.933-5.385,6.368-7.694l-2.847,4.905c4.642-5.053,13.479-4.287,18.555,0.332c1.818,1.646,3.213,3.636,4.264,5.831
				c0.446,0.903,0.823,1.852,1.132,2.824C272.064,341.253,272.498,344.763,272.475,348.159z"/>
		</g>
		<path style="fill:#CF8C69;" d="M257.3,397.529c3.247-0.241,96.035,8.384,96.035,8.384l2.286,10.671
			c0,0-111.279,17.911-121.949,15.244C223.002,429.16,226.432,399.816,257.3,397.529z"/>
		<g>
			<path style="fill:#CF8C69;" d="M353.387,405.691c5.517-1.922,11.491-3.415,17.157-1.993c5.62,1.411,10.162,5.5,14.019,9.824
				c3.857,4.324,7.342,9.075,11.995,12.528c-3.108,0.427-5.982-1.701-8.092-4.023c-2.11-2.322-3.963-5.039-6.763-6.453
				c-0.796,1.521,0.588,3.233,1.857,4.39c2.193,2.001,4.387,4.001,6.58,6.002c-3.019,1.059-6.174-1.231-8.171-3.73
				s-3.713-5.508-6.667-6.734c0.304,3.965,1.848,7.826,4.364,10.906c-2.199,1.208-4.786-0.921-5.977-3.129
				c-1.19-2.208-2.089-4.909-4.389-5.911c-1.198-0.522-2.557-0.46-3.862-0.389c-3.267,0.178-6.535,0.356-9.802,0.534
				c0,0-2.396,1.642-5.731-2.836C346.571,410.201,353.387,405.691,353.387,405.691z"/>
		</g>
		<g>
			<path style="fill:#CF8C69;" d="M376.18,407.439c3.762,0.835,7.525,1.67,11.287,2.505c1.06,0.235,2.137,0.477,3.082,1.013
				c1.316,0.746,2.257,1.993,3.188,3.185c2.249,2.875,4.75,5.691,8.014,7.323c-2.131,0.889-4.708,0.611-6.601-0.712
				c-1.507-1.052-2.529-2.656-3.88-3.901c-3.097-2.855-7.548-3.563-11.72-4.142"/>
		</g>
		<g>
			<path style="fill:#CF8C69;" d="M369.738,404.001c1.349-0.364,2.698-0.728,4.046-1.092c0.956-0.258,1.92-0.517,2.909-0.581
				c1.679-0.108,3.342,0.352,5.023,0.417c2.289,0.089,4.537-0.552,6.738-1.187c0.068,1.829-1.183,3.629-2.92,4.203
				c-1.836,0.607-3.886-0.081-5.76,0.397c-1.941,0.496-3.392,2.158-5.29,2.799"/>
		</g>
		<g>
			<path style="fill:#CF8C69;" d="M320.836,333.216c-1.143,2.63-2.469,5.396-4.939,6.848c-1.383,0.812-2.995,1.12-4.585,1.349
				c-7.5,1.097-15.491,0.709-22.134-2.95c-8.986-4.962-14.36-15.206-23.757-19.298c-2.287-0.995-4.733-1.578-7.214-1.864
				c6.402-3.738,13.582-6.482,20.556-9.009c0,0,30.365,6.345,44.405,12.53C324.14,324.87,322.528,329.295,320.836,333.216z"/>
		</g>
		<g>
			<path style="fill:#693B29;" d="M278.254,222.281c-5.837-1.135-12.508,1.772-17.518-1.43c-2.56-1.636-4.053-4.657-4.242-7.689
				c-0.189-3.032,0.814-6.052,2.393-8.648c3.007-4.943,8.188-8.507,13.879-9.548c5.691-1.04,11.798,0.46,16.359,4.019
				c3.238,2.527,5.787,7,3.905,10.652c-0.596,1.158-1.567,2.071-2.519,2.961c-4.251,3.971-8.502,7.941-12.753,11.912"/>
		</g>
		<g>
			<path style="fill:#E38038;" d="M290.145,272.561c1.638-0.471,3.436,0.031,4.86,0.967c1.424,0.936,2.538,2.267,3.595,3.603
				c0.917,1.159,1.814,2.347,2.465,3.673c1.968,4.01,1.377,9.066-1.206,12.711c-2.583,3.645-6.976,5.848-11.438,6.075
				c-4.462,0.228-8.93-1.429-12.396-4.248c-1.36-1.106-2.606-2.428-3.256-4.056c-0.431-1.08-0.583-2.253-0.635-3.415
				c-0.122-2.756,0.323-5.597,1.706-7.984c1.383-2.387,3.79-4.263,6.529-4.595c-1.546,0.764-2.642,2.212-3.469,3.725
				c-1.272,2.328-2.045,4.974-1.9,7.623c0.145,2.649,1.271,5.289,3.295,7.004c1.705,1.444,3.94,2.161,6.168,2.328
				c3.569,0.267,7.267-0.875,9.916-3.283c2.648-2.408,4.148-6.092,3.712-9.645c-0.436-3.553-2.885-6.841-6.245-8.075
				c-0.578-0.212-1.202-0.381-1.641-0.813c-0.439-0.432-0.58-1.244-0.102-1.633"/>
		</g>
		<g>
			<path style="fill:#E38038;" d="M282.051,265.392c-0.033-0.681,0.091-1.36,0.215-2.031c0.171-0.926,0.373-1.913,1.04-2.577
				c1.015-0.229,2.095-0.163,3.076,0.186c0.065,0.023,0.132,0.049,0.175,0.102c0.075,0.092,0.054,0.225,0.03,0.341
				c-0.296,1.431-0.383,2.904-0.258,4.36c0.007,0.078,0.008,0.17-0.053,0.219c-0.035,0.028-0.082,0.034-0.127,0.039
				c-1.025,0.106-2.055,0.156-3.085,0.149c-0.283-0.002-0.617-0.037-0.758-0.282"/>
		</g>
		<g>
			<g>
				<path style="fill:#DD5533;" d="M268.805,392.267c0.011,0.812,0,1.612-0.012,2.424c-8.323-3.258-17.538-4.173-26.215-1.715
					c-4.23,1.189-8.232,3.144-11.764,5.762c-1.772,1.315-3.418,2.813-4.916,4.436c-0.092,0.103-0.309,0.343-0.606,0.663
					c0-1.132,0.023-2.252,0.057-3.384c3.658-3.67,8.106-6.528,12.919-8.437C248.123,388.116,259.007,388.654,268.805,392.267z"/>
			</g>
			<g>
				<path style="fill:#DD5533;" d="M269.068,377.312c-0.046,0.812-0.069,1.624-0.091,2.435c-6.745-2.801-13.937-4.482-21.311-4.55
					c-6.917-0.069-13.811,1.338-20.042,4.184c0.16-0.915,0.332-1.818,0.503-2.721c5.865-2.435,12.233-3.704,18.624-3.75
					C254.446,372.842,261.98,374.477,269.068,377.312z"/>
			</g>
			<g>
				<path style="fill:#DD5533;" d="M270.566,363.604c-0.126,0.766-0.251,1.521-0.366,2.287c-5.316-1.967-10.873-3.281-16.543-3.887
					c-7.317-0.789-15.274-0.652-22.477,1.521c0.217-0.869,0.457-1.738,0.697-2.595c7.066-1.852,14.737-1.955,21.779-1.212
					C259.442,360.335,265.124,361.638,270.566,363.604z"/>
			</g>
			<g>
				<path style="fill:#DD5533;" d="M272.384,350.514c-0.046,0.812-0.114,1.612-0.194,2.412c-3.922-1.726-8.152-2.881-12.416-3.636
					c-7.74-1.383-16.189-2.047-24.123-0.675c0.274-0.812,0.572-1.612,0.869-2.412c7.591-1.098,15.514-0.514,23.014,0.732
					C263.912,347.667,268.291,348.799,272.384,350.514z"/>
			</g>
			<g>
				<path style="fill:#DD5533;" d="M270.989,338.029c-9.341-3.453-19.218-5.076-29.016-3.681c0.492-0.858,1.006-1.692,1.543-2.515
					c8.883-0.937,17.812,0.469,26.341,3.373C270.303,336.109,270.68,337.058,270.989,338.029z"/>
			</g>
		</g>
		<g>
			<g>
				<g>
					<path style="fill:#E38038;" d="M359.766,272.355c2.61-5.435,5.386-10.783,8.33-16.044c0.315-0.562-0.549-1.067-0.863-0.505
						c-2.944,5.261-5.721,10.609-8.33,16.044C358.625,272.428,359.487,272.936,359.766,272.355L359.766,272.355z"/>
				</g>
			</g>
			<g>
				<g>
					<path style="fill:#E38038;" d="M363.85,276.938c2.523-2.309,5.13-4.518,7.822-6.629c0.506-0.397-0.206-1.1-0.707-0.707
						c-2.691,2.111-5.298,4.32-7.822,6.629C362.668,276.666,363.376,277.371,363.85,276.938L363.85,276.938z"/>
				</g>
			</g>
			<g>
				<g>
					<path style="fill:#E38038;" d="M375.725,268.057c3.158-2.185,6.316-4.37,9.474-6.555c0.526-0.364,0.026-1.231-0.505-0.863
						c-3.158,2.185-6.316,4.37-9.475,6.555C374.694,267.557,375.194,268.424,375.725,268.057L375.725,268.057z"/>
				</g>
			</g>
			<g>
				<g>
					<path style="fill:#E38038;" d="M367.172,284.261c5.042-1.586,10.084-3.172,15.126-4.758c2.274-0.715,4.542-1.487,6.867-2.025
						c2.334-0.54,4.728-0.7,7.055-1.27c0.625-0.153,0.36-1.118-0.266-0.964c-2.327,0.57-4.722,0.73-7.055,1.271
						c-2.324,0.538-4.593,1.309-6.867,2.025c-5.042,1.586-10.084,3.172-15.126,4.757
						C366.294,283.489,366.556,284.454,367.172,284.261L367.172,284.261z"/>
				</g>
			</g>
			<g>
				<g>
					<path style="fill:#E38038;" d="M365.51,293.062c7.764,0.732,15.527,1.464,23.291,2.196c0.64,0.06,0.636-0.94,0-1
						c-7.764-0.732-15.528-1.464-23.291-2.196C364.87,292.002,364.874,293.002,365.51,293.062L365.51,293.062z"/>
				</g>
			</g>
			<g>
				<g>
					<path style="fill:#E38038;" d="M363.892,301.167c4.488,1.845,8.875,3.895,13.174,6.144c0.57,0.298,1.076-0.565,0.505-0.863
						c-4.375-2.289-8.846-4.368-13.412-6.245C363.563,299.958,363.304,300.925,363.892,301.167L363.892,301.167z"/>
				</g>
			</g>
			<g>
				<g>
					<path style="fill:#E38038;" d="M395.644,295.823c1.271,0.123,2.541,0.246,3.812,0.369c0.64,0.062,0.636-0.939,0-1
						c-1.271-0.123-2.541-0.246-3.812-0.369C395.004,294.761,395.008,295.762,395.644,295.823L395.644,295.823z"/>
				</g>
			</g>
		</g>
	</g>
	<g>
		<rect x="59.385" y="298.8" style="fill:#48454D;" width="162.319" height="13.963"/>
		<rect x="59.385" y="321.838" style="fill:#DDC8AB;" width="162.319" height="13.963"/>
		<rect x="59.385" y="321.838" style="fill:#DD5533;" width="101.132" height="13.963"/>
		<rect x="59.385" y="345.924" style="fill:#DDC8AB;" width="162.319" height="13.963"/>
		<rect x="59.385" y="345.924" style="fill:#494D36;" width="35.824" height="13.963"/>
	</g>
	<g>
		<path style="fill:#322020;" d="M549.423,365.131l-48.253,64.979c0,0-100.79-0.316-103.555,1.57l4.137-5.411l46.712-61.217
			c1.55-2.044,3.851-3.347,6.359-3.653c0.385-0.049,0.77-0.069,1.155-0.069h91.539C549.472,361.329,550.588,363.551,549.423,365.131
			z"/>
		<path style="fill:#322020;" d="M497.612,433.733H348.19c-1.999,0-3.62-1.621-3.62-3.62l0,0c0-1.999,1.621-3.62,3.62-3.62h149.422
			c1.999,0,3.62,1.621,3.62,3.62l0,0C501.233,432.112,499.612,433.733,497.612,433.733z"/>
		<path style="fill:#452C2C;" d="M456.146,366.592l-46.08,59.904l-8.314-0.227l46.712-61.217c1.55-2.044,3.851-3.347,6.359-3.653
			C456.551,363.452,456.146,366.592,456.146,366.592z"/>
	</g>
	<g>
		<path style="fill:#7C7754;" d="M613.24,431.447H139.924c-4.104,0-7.431,3.327-7.431,7.431l0,0c0,4.104,3.327,7.431,7.431,7.431
			H613.24c4.104,0,7.431-3.327,7.431-7.431l0,0C620.672,434.774,617.344,431.447,613.24,431.447z"/>
		<path style="opacity:0.51;fill:#494D36;" d="M620.649,439.449c-0.286,3.841-3.498,6.86-7.408,6.86H139.924
			c-2.058,0-3.91-0.835-5.259-2.172c-1.212-1.223-2.012-2.858-2.149-4.687H620.649z"/>
	</g>
	<g>
		<g>
			<g>
				<path style="fill:#E38038;" d="M565.255,324.06h-96.123c-2.278,0-4.125-1.847-4.125-4.125v-20.468
					c0-2.278,1.847-4.125,4.125-4.125h96.123c2.278,0,4.125,1.847,4.125,4.125v20.468C569.38,322.214,567.533,324.06,565.255,324.06
					z"/>
				<polygon style="fill:#E38038;" points="465.007,318.965 465.007,336.412 480.911,319.559 				"/>
			</g>
			<g>
				
					<line style="fill:none;stroke:#DDC8AB;stroke-width:2;stroke-miterlimit:10;" x1="474.58" y1="304.812" x2="560.116" y2="304.812"/>
				
					<line style="fill:none;stroke:#DDC8AB;stroke-width:2;stroke-miterlimit:10;" x1="474.58" y1="313.458" x2="560.116" y2="313.458"/>
			</g>
		</g>
		<g>
			<g>
				<path style="fill:#7C7754;" d="M421.658,277.983h96.123c2.278,0,4.125-1.847,4.125-4.125V253.39
					c0-2.278-1.847-4.125-4.125-4.125h-96.123c-2.278,0-4.125,1.847-4.125,4.125v20.468
					C417.533,276.136,419.38,277.983,421.658,277.983z"/>
				<polygon style="fill:#7C7754;" points="521.906,272.888 521.906,290.335 506.002,273.481 				"/>
			</g>
			<g>
				
					<line style="fill:none;stroke:#DDC8AB;stroke-width:2;stroke-miterlimit:10;" x1="512.333" y1="258.735" x2="426.797" y2="258.735"/>
				
					<line style="fill:none;stroke:#DDC8AB;stroke-width:2;stroke-miterlimit:10;" x1="512.333" y1="267.381" x2="426.797" y2="267.381"/>
			</g>
		</g>
	</g>
	<g>
		<g>
			<rect x="523.936" y="412.895" style="fill:#DDC8AB;" width="90.383" height="19.321"/>
			<g>
				<g>
					<path style="fill:#C9AE89;" d="M524.118,429.781c15.41,0.469,30.642-0.488,45.998-1.616c7.501-0.551,14.92-0.635,22.405,0.18
						c7.244,0.789,14.45,1.823,21.724,0.771c0.635-0.092,0.365-1.055-0.266-0.964c-7.49,1.083-14.947-0.129-22.401-0.908
						c-7.494-0.783-14.946-0.576-22.448-0.005c-15.02,1.143-29.94,2-45.012,1.542C523.474,428.762,523.475,429.762,524.118,429.781
						L524.118,429.781z"/>
				</g>
			</g>
			<g>
				<g>
					<path style="fill:#C9AE89;" d="M524.649,425.344c15.059,0.32,30.099,0.521,45.153-0.127
						c14.838-0.639,29.683-1.618,44.533-0.728c0.643,0.038,0.641-0.962,0-1c-14.849-0.889-29.695,0.09-44.533,0.728
						c-15.054,0.648-30.094,0.448-45.153,0.127C524.006,424.331,524.006,425.331,524.649,425.344L524.649,425.344z"/>
				</g>
			</g>
			<g>
				<g>
					<path style="fill:#C9AE89;" d="M524.413,421.485c7.461-1.334,15.234-0.419,22.759-0.184c7.479,0.234,14.96,0.381,22.442,0.442
						c14.964,0.121,29.93-0.114,44.884-0.68c0.642-0.024,0.645-1.024,0-1c-15.286,0.579-30.584,0.81-45.881,0.671
						c-7.648-0.069-15.295-0.23-22.94-0.481c-7.15-0.235-14.439-1-21.529,0.267C523.514,420.634,523.782,421.598,524.413,421.485
						L524.413,421.485z"/>
				</g>
			</g>
			<g>
				<g>
					<path style="fill:#C9AE89;" d="M523.947,416.907c15.033,0.773,30.076,0.09,45.117,0.08c14.867-0.01,29.901,2.03,44.724,0.417
						c0.633-0.069,0.64-1.07,0-1c-14.823,1.612-29.857-0.427-44.724-0.417c-15.041,0.01-30.084,0.693-45.117-0.08
						C523.304,415.874,523.305,416.874,523.947,416.907L523.947,416.907z"/>
				</g>
			</g>
			<g>
				<path style="fill:#C9AE89;" d="M614.319,412.895v8.826c-1.212,0.521-2.435,1.042-3.647,1.563
					c-2.743,1.191-5.497,2.371-8.177,3.722c-3.009,1.531-5.912,3.275-8.698,5.21h-13.015c-1-1.925-2.084-3.796-2.945-5.774
					c-4.221-9.761-9.347-12.483-9.347-12.483s-1.223-0.443-5.189-1.063H614.319z"/>
			</g>
		</g>
		<g>
			<path style="fill:#E6D2B8;" d="M579.965,425.467c0.964,2.227,2.207,4.322,3.311,6.483c1.27,2.488,2.573,5.113,2.483,7.905
				c5.48-5.593,11.882-10.283,18.867-13.821c2.672-1.353,5.425-2.538,8.176-3.722c2.753-1.185,5.506-2.37,8.259-3.554
				c-1.532-3.716-3.314-7.717-6.862-9.608c-2.545-1.357-5.569-1.373-8.453-1.312c-16.003,0.337-47.683,5.142-47.683,5.142l12.552,0
				C570.615,412.979,575.738,415.709,579.965,425.467z"/>
		</g>
	</g>
	<g>
		<g>
			<path style="fill:#E38038;" d="M193.057,431.351h-15.186c-5.488,0-9.938-4.449-9.938-9.938v-23.217h35.061v23.217
				C202.995,426.902,198.545,431.351,193.057,431.351z"/>
			<path style="fill:#F58C40;" d="M196.146,398.196c0.912,10.623,1.479,25.189-5.012,33.155h0.499
				c6.275,0,11.361-5.086,11.361-11.361v-21.794H196.146z"/>
			<path style="fill:none;stroke:#E38038;stroke-width:3;stroke-miterlimit:10;" d="M168.458,403.151
				c-0.429,0-10.004-2.572-11.147,6.145c-1.143,8.717,8.717,14.863,14.291,14.863"/>
		</g>
		<g>
			<g>
				<g>
					<path style="fill:#F4E5D3;" d="M188.407,394.713c-4.018-0.907-5.78-4.827-4.808-8.667c0.838-3.309,3.217-5.778,5.51-8.164
						c1.407-1.463,2.85-3.072,3.212-5.139c0.401-2.289-0.701-4.389-1.77-6.332c-0.31-0.564-1.174-0.06-0.863,0.505
						c1.212,2.201,2.388,4.664,1.153,7.145c-0.758,1.522-2.065,2.707-3.223,3.917c-1.884,1.968-3.677,4.086-4.626,6.681
						c-1.684,4.603,0.068,9.872,5.15,11.019C188.768,395.818,189.036,394.854,188.407,394.713L188.407,394.713z"/>
				</g>
			</g>
			<g>
				<g>
					<path style="fill:#F4E5D3;" d="M194.111,390.581c-3.887-0.614-3.59-5.151-1.809-7.652c1.392-1.956,3.449-3.219,4.998-5.026
						c1.793-2.091,2.581-5.066,0.566-7.278c-0.434-0.477-1.14,0.232-0.707,0.707c2.829,3.105-1.06,6.413-3.242,8.384
						c-1.471,1.328-2.92,2.848-3.605,4.751c-1.046,2.908,0.227,6.556,3.533,7.078C194.475,391.645,194.746,390.681,194.111,390.581
						L194.111,390.581z"/>
				</g>
			</g>
			<g>
				<g>
					<path style="fill:#F4E5D3;" d="M177.652,387.739c-2.183,0.092-0.69-4.587-0.303-5.329c0.444-0.851,1.061-1.601,1.763-2.252
						c1.3-1.205,2.981-1.965,4.199-3.27c1.564-1.675,2.324-4.057,0.942-6.059c-0.363-0.526-1.23-0.027-0.863,0.505
						c2.215,3.208-1.833,5.694-3.994,7.327c-1.422,1.075-2.573,2.308-3.245,3.985c-0.653,1.629-1.426,6.216,1.501,6.092
						C178.294,388.712,178.297,387.711,177.652,387.739L177.652,387.739z"/>
				</g>
			</g>
		</g>
	</g>
	<g>
		<g>
			<path style="fill:#DDC8AB;" d="M543.898,124.612v85.872c0,6.943-5.624,12.567-12.567,12.567H389.957
				c-6.943,0-12.567-5.624-12.567-12.567v-85.872c0-6.943,5.624-12.567,12.567-12.567h141.374
				C538.274,112.046,543.898,117.669,543.898,124.612z"/>
			<path style="fill:#48454D;" d="M543.898,124.612v6.283H377.39v-6.283c0-6.943,5.624-12.567,12.567-12.567h141.374
				C538.274,112.046,543.898,117.669,543.898,124.612z"/>
			<g>
				
					<line style="fill:none;stroke:#DDC8AB;stroke-width:2;stroke-linecap:round;stroke-linejoin:round;stroke-miterlimit:10;" x1="387.164" y1="125.311" x2="394.495" y2="117.98"/>
				
					<line style="fill:none;stroke:#DDC8AB;stroke-width:2;stroke-linecap:round;stroke-linejoin:round;stroke-miterlimit:10;" x1="387.164" y1="117.98" x2="394.495" y2="125.311"/>
			</g>
		</g>
		<g>
			<rect x="393.447" y="142.764" style="fill:#7C7754;" width="25.831" height="65.626"/>
			<rect x="431.845" y="160.218" style="fill:#DD5533;" width="25.831" height="48.172"/>
			<rect x="469.545" y="145.557" style="fill:#E38038;" width="25.831" height="62.833"/>
			<rect x="505.849" y="191.634" style="fill:#7C7754;" width="25.831" height="16.756"/>
		</g>
	</g>
	<g>
		<rect x="243.695" y="65.359" style="fill:#D97329;" width="99.95" height="99.95"/>
		<g>
			<path style="fill:#E38038;" d="M354.114,160.218h-86.102c-4.43-4.503-11.331-11.478-14.954-15.027
				c-0.22-0.22-0.429-0.419-0.618-0.607l-8.744-79.222h99.947L354.114,160.218z"/>
			<path style="fill:#D97329;" d="M270.221,147.997l-2.21,12.221c-4.43-4.503-11.331-11.478-14.954-15.027L270.221,147.997z"/>
			<path style="fill:#F58C40;" d="M252.441,144.583c4.71,4.773,12.188,12.329,15.575,15.635l-1.726-15.635H252.441z"/>
		</g>
		<g>
			<g>
				<path style="fill:#C7B297;" d="M294.449,76.421c2.09-1.956,4.284-3.799,6.532-5.572l0.554,0.885l-6.487,5.046
					C295.048,76.78,293.754,77.071,294.449,76.421z"/>
			</g>
			<path style="fill:#DD5533;" d="M304.787,71.43c0,2.229-1.807,4.036-4.036,4.036c-2.229,0-4.036-1.807-4.036-4.036
				c0-2.229,1.807-4.036,4.036-4.036C302.979,67.394,304.787,69.201,304.787,71.43z"/>
			<polygon style="fill:#DD5533;" points="297.835,68.659 301.055,65.055 307.782,71.686 303.121,74.665 			"/>
			<path style="fill:#DD5533;" d="M309.752,67.842c0,2.654-2.151,4.805-4.805,4.805c-2.654,0-4.805-2.151-4.805-4.805
				c0-2.654,2.151-4.805,4.805-4.805C307.601,63.037,309.752,65.188,309.752,67.842z"/>
		</g>
		
			<line style="fill:none;stroke:#DDC8AB;stroke-width:2;stroke-linecap:round;stroke-linejoin:round;stroke-miterlimit:10;" x1="264.29" y1="94.069" x2="333.93" y2="94.069"/>
		
			<line style="fill:none;stroke:#DDC8AB;stroke-width:2;stroke-linecap:round;stroke-linejoin:round;stroke-miterlimit:10;" x1="265.512" y1="106.984" x2="337.596" y2="106.984"/>
		
			<line style="fill:none;stroke:#DDC8AB;stroke-width:2;stroke-linecap:round;stroke-linejoin:round;stroke-miterlimit:10;" x1="269.527" y1="120.773" x2="339.865" y2="120.773"/>
		<g>
			<g>
				<path style="fill:#DDC8AB;" d="M255.215,95.87c0.058,0,0.116,0,0.175,0c1.308,0,2.56-1.15,2.5-2.5
					c-0.061-1.354-1.098-2.5-2.5-2.5c-0.058,0-0.116,0-0.175,0c-1.308,0-2.561,1.15-2.5,2.5
					C252.775,94.725,253.813,95.87,255.215,95.87L255.215,95.87z"/>
			</g>
		</g>
		<g>
			<g>
				<path style="fill:#DDC8AB;" d="M257.134,104.484c-0.058,0-0.116,0-0.174,0c-1.308,0-2.561,1.15-2.5,2.5
					c0.061,1.354,1.098,2.5,2.5,2.5c0.058,0,0.116,0,0.174,0c1.308,0,2.56-1.15,2.5-2.5
					C259.574,105.63,258.536,104.484,257.134,104.484L257.134,104.484z"/>
			</g>
		</g>
		<g>
			<g>
				<path style="fill:#DDC8AB;" d="M259.753,123.098c3.217,0,3.223-5,0-5C256.535,118.098,256.53,123.098,259.753,123.098
					L259.753,123.098z"/>
			</g>
		</g>
	</g>
	<g>
		<g>
			<path style="fill:#DD5533;" d="M585.054,389.601c25.388-6.582,46.991-24.616,57.912-48.474c0.875-1.913-1.961-3.587-2.842-1.661
				c-10.59,23.135-31.304,40.573-55.945,46.961C582.13,386.958,582.998,390.134,585.054,389.601L585.054,389.601z"/>
		</g>
		<path style="fill:#DD5533;" d="M634.343,337.34c2.605-2.904,5.535-5.516,8.719-7.77c0.937-0.664,2.265-1.288,3.14-0.544
			c0.527,0.447,0.627,1.209,0.69,1.897c0.441,4.761,0.881,9.522,1.322,14.283c-4.313-2.442-8.627-4.883-12.94-7.325"/>
	</g>
	<g>
		<g>
			<g>
				<path style="fill:#E38038;" d="M550.638,351.448c6.516,5.262,9.701,13.72,8.165,21.972c-0.117,0.629,0.846,0.899,0.964,0.266
					c1.597-8.58-1.62-17.452-8.422-22.945C550.849,350.341,550.138,351.044,550.638,351.448L550.638,351.448z"/>
			</g>
		</g>
		<g>
			<g>
				<path style="fill:#E38038;" d="M559.689,348.714c5.883,3.85,9.074,10.84,8.074,17.81c-0.09,0.629,0.873,0.901,0.964,0.266
					c1.067-7.436-2.238-14.82-8.533-18.939C559.654,347.497,559.152,348.362,559.689,348.714L559.689,348.714z"/>
			</g>
		</g>
	</g>
	<g>
		<g>
			<g>
				<path style="fill:#48454D;" d="M437.326,359.619c-3.477-4.132-6.954-8.264-10.431-12.396c-0.415-0.493-1.119,0.217-0.707,0.707
					c3.477,4.132,6.954,8.264,10.431,12.396C437.033,360.819,437.738,360.108,437.326,359.619L437.326,359.619z"/>
			</g>
		</g>
		<g>
			<g>
				<path style="fill:#48454D;" d="M413.677,382.201c-3.54-0.835-7.079-1.67-10.619-2.505c-0.626-0.148-0.893,0.816-0.266,0.964
					c3.54,0.835,7.079,1.67,10.619,2.505C414.037,383.313,414.304,382.349,413.677,382.201L413.677,382.201z"/>
			</g>
		</g>
		<g>
			<g>
				<path style="fill:#48454D;" d="M409.143,363.15c3.477,2.915,6.955,5.83,10.432,8.745c0.49,0.411,1.201-0.293,0.707-0.707
					c-3.478-2.915-6.955-5.83-10.432-8.745C409.36,362.032,408.649,362.736,409.143,363.15L409.143,363.15z"/>
			</g>
		</g>
		<g>
			<g>
				<path style="fill:#48454D;" d="M449.725,355.848c-0.756-5.036-1.512-10.072-2.268-15.108c-0.095-0.634-1.059-0.365-0.964,0.266
					c0.756,5.036,1.512,10.072,2.268,15.108C448.856,356.748,449.82,356.478,449.725,355.848L449.725,355.848z"/>
			</g>
		</g>
	</g>
	<g>
		<g>
			<g>
				<path style="fill:#DDC8AB;" d="M142.834,265.463c-41.468,0-75.204-33.736-75.204-75.204c0-41.468,33.737-75.204,75.204-75.204
					s75.204,33.736,75.204,75.204C218.038,231.727,184.302,265.463,142.834,265.463z M142.834,140.921
					c-27.205,0-49.338,22.133-49.338,49.338c0,27.205,22.133,49.338,49.338,49.338c27.205,0,49.338-22.133,49.338-49.338
					C192.172,163.054,170.039,140.921,142.834,140.921z"/>
			</g>
			<g>
				<path style="fill:#DD5533;" d="M160.442,117.157c-1.386,8.605-2.218,17.334-2.838,26.025
					c20.011,6.292,34.567,25.016,34.567,47.077c0,27.205-22.133,49.338-49.338,49.338c-27.205,0-49.338-22.133-49.338-49.338
					c0-5.164,0.801-10.144,2.28-14.826c-1.258-0.304-2.517-0.602-3.776-0.899c-7.09-1.671-14.329-3.28-21.235-5.729
					c-2.029,6.803-3.135,14-3.135,21.454c0,41.468,33.737,75.204,75.204,75.204s75.204-33.736,75.204-75.204
					C218.038,154.855,193.44,125.106,160.442,117.157z"/>
			</g>
			<g>
				<path style="fill:#494D36;" d="M180.346,125.121c-2.247,3.186-4.519,6.335-7.017,9.341c-3.031,3.647-6.434,7.296-9.395,11.21
					c16.677,7.924,28.237,24.929,28.237,44.587c0,25.617-19.626,46.729-44.631,49.108c0.436,6.057,0.44,12.195,0.696,18.193
					c0.109,2.553,0.232,5.107,0.388,7.659c38.77-2.969,69.414-35.442,69.414-74.959
					C218.038,162.447,202.851,138.132,180.346,125.121z"/>
			</g>
			<g>
				<path style="fill:#E38038;" d="M144.096,140.959c15.475,0.392,29.202,7.93,37.984,19.447c4.995-4.784,10.59-8.987,16.02-13.205
					c1.341-1.042,2.702-2.057,4.068-3.067c-13.701-17.585-35.019-28.956-58.96-29.074
					C143.422,118.215,144.096,135.812,144.096,140.959z"/>
			</g>
		</g>
		<text transform="matrix(1 0 0 1 134.8638 207.1816)" style="fill:#DD5533; font-family:'Amatic-Bold'; font-size:33.3053px;">%</text>
		<g>
			<g>
				<path style="fill:#E38038;" d="M69.14,141.32c-3.828-3.198-7.656-6.396-11.485-9.594c-0.491-0.41-1.202,0.294-0.707,0.707
					c3.828,3.198,7.656,6.396,11.485,9.594C68.924,142.436,69.635,141.733,69.14,141.32L69.14,141.32z"/>
			</g>
		</g>
		<g>
			<g>
				<path style="fill:#E38038;" d="M79.19,126.286c-2.458-3.475-4.915-6.95-7.373-10.425c-0.369-0.521-1.236-0.022-0.863,0.505
					c2.458,3.475,4.915,6.95,7.373,10.425C78.695,127.312,79.563,126.813,79.19,126.286L79.19,126.286z"/>
			</g>
		</g>
		<g>
			<g>
				<path style="fill:#E38038;" d="M89.976,116.115c-1.78-2.602-3.145-5.384-4.099-8.391c-0.194-0.611-1.16-0.35-0.964,0.266
					c0.978,3.081,2.375,5.961,4.2,8.63C89.474,117.148,90.341,116.648,89.976,116.115L89.976,116.115z"/>
			</g>
		</g>
	</g>
	<g>
		<g>
			<g>
				<path style="fill:#E38038;" d="M536.578,99.399c11.351-0.805,21.992,7.846,23.559,19.109c0.088,0.635,1.052,0.365,0.964-0.266
					c-1.624-11.671-12.776-20.676-24.523-19.843C535.939,98.444,535.934,99.445,536.578,99.399L536.578,99.399z"/>
			</g>
		</g>
		<g>
			<g>
				<path style="fill:#E38038;" d="M549.667,91.746c4.563,0.997,8.529,3.243,11.726,6.649c0.441,0.47,1.147-0.238,0.707-0.707
					c-3.304-3.52-7.45-5.876-12.167-6.907C549.305,90.644,549.037,91.608,549.667,91.746L549.667,91.746z"/>
			</g>
		</g>
	</g>
	<g>
		<g>
			<g>
				<polygon style="fill:#D9762E;" points="657.87,201.932 572.522,201.932 615.457,231.429 				"/>
				<polygon style="fill:#D9762E;" points="657.87,202.107 572.522,202.107 615.457,172.61 				"/>
				<rect x="580.027" y="180.639" style="fill:#DDC8AB;" width="70.862" height="67.022"/>
				<polygon style="fill:#E38038;" points="615.457,231.429 572.522,201.932 572.522,264.241 657.87,264.241 657.87,201.932 				"/>
				<g>
					<g>
						<path style="fill:#D9762E;" d="M574.507,263.495c6.788-5.126,14.004-9.627,21.078-14.339
							c3.525-2.348,7.016-4.753,10.384-7.323c1.488-1.136,2.953-2.302,4.384-3.508c1.573-1.326,3.026-3.078,4.704-4.243
							c1.261-0.875,1.251-0.442,2.377,0.623c0.633,0.599,1.27,1.193,1.925,1.768c1.553,1.364,3.184,2.618,4.942,3.709
							c3.674,2.279,7.617,4.096,11.307,6.358c7.691,4.715,14.741,10.375,21.079,16.789c0.453,0.458,1.16-0.249,0.707-0.707
							c-5.882-5.953-12.378-11.266-19.427-15.782c-3.549-2.273-7.259-4.2-10.942-6.237c-4.073-2.252-7.442-5.189-10.765-8.422
							c-0.193-0.188-0.514-0.194-0.707,0c-12.224,12.251-27.843,20.096-41.551,30.449
							C573.495,263.015,573.993,263.884,574.507,263.495L574.507,263.495z"/>
					</g>
				</g>
				<line style="fill:none;stroke:#DD5533;stroke-miterlimit:10;" x1="585.612" y1="191.983" x2="646.001" y2="191.983"/>
				<line style="fill:none;stroke:#DD5533;stroke-miterlimit:10;" x1="585.612" y1="198.267" x2="646.001" y2="198.267"/>
				<line style="fill:none;stroke:#DD5533;stroke-miterlimit:10;" x1="585.612" y1="204.55" x2="646.001" y2="204.55"/>
			</g>
			
				<ellipse transform="matrix(0.4956 -0.8686 0.8686 0.4956 101.9518 704.7274)" style="fill:#DD5533;" cx="657.695" cy="264.591" rx="20.595" ry="20.595"/>
			<text transform="matrix(1 0 0 1 650.1895 274.5088)" style="fill:#E6D2B8; font-family:'Amatic-Bold'; font-size:25.2515px;">20</text>
		</g>
		<g>
			<g>
				<g>
					<path style="fill:#E38038;" d="M680.638,240.937c5.474-2.432,10.426-5.724,14.8-9.812c0.471-0.44-0.237-1.146-0.707-0.707
						c-4.316,4.034-9.201,7.258-14.598,9.656C679.546,240.335,680.054,241.197,680.638,240.937L680.638,240.937z"/>
				</g>
			</g>
			<g>
				<g>
					<path style="fill:#E38038;" d="M691.603,249.06c6.094-1.709,12.187-3.418,18.28-5.126c0.619-0.173,0.356-1.139-0.266-0.964
						c-6.093,1.709-12.187,3.418-18.28,5.126C690.718,248.269,690.981,249.234,691.603,249.06L691.603,249.06z"/>
				</g>
			</g>
			<g>
				<g>
					<path style="fill:#E38038;" d="M690.164,266.204c4.451-0.325,8.869-0.198,13.294,0.382c0.636,0.083,0.63-0.918,0-1
						c-4.425-0.579-8.843-0.706-13.294-0.382C689.526,265.25,689.521,266.251,690.164,266.204L690.164,266.204z"/>
				</g>
			</g>
			<g>
				<g>
					<path style="fill:#E38038;" d="M684.206,285.863c4.518,2.122,9.036,4.243,13.554,6.365c0.579,0.272,1.087-0.59,0.505-0.863
						c-4.518-2.121-9.036-4.243-13.554-6.365C684.132,284.728,683.623,285.59,684.206,285.863L684.206,285.863z"/>
				</g>
			</g>
			<g>
				<g>
					<path style="fill:#E38038;" d="M675.662,298.984c3.165,3.219,5.797,6.835,7.893,10.832c0.299,0.57,1.162,0.065,0.863-0.505
						c-2.136-4.074-4.825-7.756-8.049-11.034C675.918,297.818,675.211,298.525,675.662,298.984L675.662,298.984z"/>
				</g>
			</g>
		</g>
	</g>
</g>
</svg>
