<svg id="OBJECTS" xmlns="http://www.w3.org/2000/svg" viewBox="0 0 653.46 383.27"><defs><style>.cls-1{fill:#d1b792;}.cls-2,.cls-29{fill:#d53;}.cls-3{fill:#ddc8ab;}.cls-4{fill:#322020;}.cls-5{fill:#a6634b;}.cls-6{fill:#cf8c69;}.cls-7{fill:#693b29;}.cls-8{fill:#f5f2e3;}.cls-9{fill:#94473f;}.cls-10{fill:#b05a52;}.cls-11{fill:#813831;}.cls-12{opacity:0.38;}.cls-13{fill:#7a4930;}.cls-14,.cls-32{fill:#e6d2b8;}.cls-15{fill:#e38038;}.cls-16{fill:#48454d;}.cls-17,.cls-20{fill:#494d36;}.cls-18{fill:#452c2c;}.cls-19{fill:#7c7754;}.cls-20{opacity:0.51;}.cls-21,.cls-24,.cls-26,.cls-31{fill:none;}.cls-21,.cls-26{stroke:#ddc8ab;stroke-width:2px;}.cls-21,.cls-24,.cls-31{stroke-miterlimit:10;}.cls-22{fill:#c9ae89;}.cls-23{fill:#f58c40;}.cls-24{stroke:#e38038;stroke-width:3px;}.cls-25{fill:#f4e5d3;}.cls-26{stroke-linecap:round;stroke-linejoin:round;}.cls-27{fill:#d97329;}.cls-28{fill:#c7b297;}.cls-29{font-size:33.31px;}.cls-29,.cls-32{font-family:Amatic-Bold, Amatic Bold;font-weight:700;}.cls-30{fill:#d9762e;}.cls-31{stroke:#d53;}.cls-32{font-size:25.25px;}</style></defs><path class="cls-1" d="M382.44,407.21c.16-.45.29-.9.44-1.36a.74.74,0,0,1-.42-.92,35.2,35.2,0,0,1,1.68-3.88.59.59,0,0,1,0-.08c0-.27,0-.53.07-.8a21.38,21.38,0,0,1-.75-6.79c-.16-1-.29-2-.39-3l-12.9-15.47-1.44-1.73-7.93-9.5-1.45-1.74L350.26,351l-1.55-1.86L342.8,342l-1.48-1.76-12-14.38-8,51.82a197.29,197.29,0,0,0,13.26,16l1.54,1.66c2.46,2.6,5.12,5.26,7.9,7.79l1.72,1.53C352.09,410.25,359,415,365.44,417c10.09,3.07,15.45-2.52,18.28-8.84C383.16,408.52,382.16,408,382.44,407.21Z" transform="translate(-56.78 -63.04)"/><path class="cls-2" d="M342.8,342q-8.07,9.36-16.05,18.78c-.95,1.13-2.56-.5-1.62-1.62q8-9.49,16.19-18.92Z" transform="translate(-56.78 -63.04)"/><path class="cls-2" d="M350.26,351c-1.56,2.67-3,5.41-4.52,8.07a59,59,0,0,1-17.51,19.86c-1.2.85-2.34-1.13-1.15-2,8.39-5.9,13.77-13.75,18.64-22.59,1-1.77,2-3.53,3-5.24Z" transform="translate(-56.78 -63.04)"/><path class="cls-2" d="M360.84,363.66c-3.68,3.59-6.57,8.14-9.32,12.47a115,115,0,0,1-15.39,19.23c-.4.43-.82.85-1.24,1.27-1,1-2.67-.58-1.62-1.62.45-.43.88-.88,1.32-1.31a115.22,115.22,0,0,0,8.8-9.83c3.09-3.91,5.63-8.16,8.34-12.32a54.13,54.13,0,0,1,7.66-9.63Z" transform="translate(-56.78 -63.04)"/><path class="cls-2" d="M370.21,374.89c-9.74,8.47-17.34,19-24.46,29.79L344,403.15c7.22-10.85,14.91-21.42,24.74-30Z" transform="translate(-56.78 -63.04)"/><path class="cls-3" d="M353.72,440l-92-2.86-2.1-8a49.63,49.63,0,0,1-4.33-5.48c-.62-.91-1.22-1.82-1.76-2.76h0q-.15-.29-.33-.57a77.49,77.49,0,0,1-6-13.9c-1.69-5-3.15-10-4.59-15.11-2.93-10.27-5.85-20.68-6.35-31.36s1.59-21.81,7.87-30.45a45.17,45.17,0,0,1,14.15-12.25c6.4-3.74,13.58-6.48,20.55-9,0,0,30.37,6.35,44.41,12.53a28.19,28.19,0,0,1,4.82,2.59c4,2.81,6.35,11.21,7.73,20.85.1.74.21,1.49.3,2.24.64,5,1,10.29,1.29,15.21,0,.77.07,1.53.09,2.28.29,6.6.31,12.36.31,15.76v.82a13.27,13.27,0,0,0,.08,1.45,112.85,112.85,0,0,0,3.08,14.77c.19.75.38,1.49.59,2.26,1.8,6.79,4,14.36,6.05,21.12l.68,2.24C351.21,432.34,353.72,440,353.72,440Z" transform="translate(-56.78 -63.04)"/><rect class="cls-4" x="323.14" y="259.41" width="25.42" height="45.45" rx="1.95" transform="translate(-151.45 303.04) rotate(-51.06)"/><path class="cls-3" d="M355.32,287.67c-2.21,2.88-7.45,9.94-9.69,13a1.74,1.74,0,0,1-2.46.33l-28.81-22.42a1.74,1.74,0,0,1-.27-2.49L325.87,262a1.75,1.75,0,0,1,2.48-.19l26.74,23.5A1.72,1.72,0,0,1,355.32,287.67Z" transform="translate(-56.78 -63.04)"/><path class="cls-5" d="M315.64,281.05l5.86-2.14a15.42,15.42,0,0,1,.78,2.1,22.24,22.24,0,0,0,.51,2.27h0c.63,2.3,1.71,4.71,3.45,5.31a17.63,17.63,0,0,0,4.21,2.1,19.4,19.4,0,0,1,6.78,5.21,24.47,24.47,0,0,1,5.2,8.89l-.53,1.77L332,307.93l-2.78-4.4a34.41,34.41,0,0,1-10.94-14.46Z" transform="translate(-56.78 -63.04)"/><path class="cls-6" d="M315.64,281.05s7.91,8.33,7.15,2.24h0a12.52,12.52,0,0,0-.32-1.57c-.05-.24-.12-.47-.19-.7a15.42,15.42,0,0,0-.78-2.1c-2.79-6.12-7.94-6-7.94-6Z" transform="translate(-56.78 -63.04)"/><path class="cls-5" d="M330.61,260.28a36.27,36.27,0,0,0,2.16,8.13,5.9,5.9,0,0,0,1.13,2,2.24,2.24,0,0,0,2.06.73,2.14,2.14,0,0,0,1.42-1.33,4.45,4.45,0,0,0,.24-2,18,18,0,0,0-1.09-4.77c-.58-1.7-1.4-3.56-3.06-4.25a2.14,2.14,0,0,0-2.15.17c-.84.69-.72,2-.5,3.06" transform="translate(-56.78 -63.04)"/><path class="cls-5" d="M336,263.38a68.4,68.4,0,0,0,3.07,9.23,5.78,5.78,0,0,0,1.1,1.91,2,2,0,0,0,2,.63,2.21,2.21,0,0,0,1.31-1.65,7.72,7.72,0,0,0-.75-4.45c-.35-.9-.69-1.8-1.1-2.67a6,6,0,0,0-2.78-3.15,1.71,1.71,0,0,0-1.4-.05,1.48,1.48,0,0,0-.7,1.15,4.12,4.12,0,0,0,.14,1.39" transform="translate(-56.78 -63.04)"/><path class="cls-5" d="M342.23,268.14q.94,3.11,1.9,6.21a5.59,5.59,0,0,0,1.15,2.37,1.93,1.93,0,0,0,2.41.41,1.77,1.77,0,0,0,.49-.56,3.82,3.82,0,0,0,.19-3.19,11.55,11.55,0,0,0-1.63-2.85,5.53,5.53,0,0,0-2.58-2.33,1.16,1.16,0,0,0-.58-.06,1.1,1.1,0,0,0-.74.89c-.1.39-.07.81-.15,1.2" transform="translate(-56.78 -63.04)"/><path class="cls-5" d="M347.63,273.49a.21.21,0,0,1,.21-.18c.35,1.26.71,2.52,1.06,3.78a10.8,10.8,0,0,0,1.81,4.11c.44.52,1.14,1,1.77.74a1.56,1.56,0,0,0,.8-1.22,6.37,6.37,0,0,0-1.15-4.15,12.07,12.07,0,0,0-2.14-2.82,1.73,1.73,0,0,0-1.2-.57c-.45,0-.88.53-.67.93" transform="translate(-56.78 -63.04)"/><path class="cls-7" d="M279.58,287.41c-11.26-10.84-17.82-27.52-14.6-43.09s15.17-27.32,32.76-27.9,25.62,2.14,38-1.47c9.57-2.8,22.56-.11,28.05,5.94a3.19,3.19,0,0,1,1.09,2.5,3.29,3.29,0,0,1-1.12,1.74,19.42,19.42,0,0,1-5.58,3.69A18,18,0,0,1,369.24,235a7.34,7.34,0,0,1,1.93,3.94c.4,4.38-5,6.69-9.29,7.63,0,0,.93-6-6.24-7.63S302.17,236,302.17,236,296,246.71,295.32,248s-15.74,39.4-15.74,39.4" transform="translate(-56.78 -63.04)"/><path class="cls-6" d="M348.67,249.1a48.42,48.42,0,0,0-6.39,18.65c-.33,2.84-.44,5.71-.73,8.58a35.61,35.61,0,0,1-.86,5.63,29.45,29.45,0,0,1-1.33,4.15c-2.24,5.63-6,10.66-9.72,15.54a6.89,6.89,0,0,1-2.48,2.3,6.66,6.66,0,0,1-2.27.41c-5.4.29-10.9.58-16.15-.75s-10.27-4.54-12.46-9.5l-18.23,11s2.53-11.69,2.84-13.72l-4.15-15-3.6-23.48s8.5-25.11,29-29S348.67,249.1,348.67,249.1Z" transform="translate(-56.78 -63.04)"/><path class="cls-6" d="M308.69,290.59l-1.36,13-.3,2.92v5.14s-.18,6.49-.18,7.27-30.59-8.5-30.59-8.5l8-23.29,7.09,1,.42.08Z" transform="translate(-56.78 -63.04)"/><path class="cls-7" d="M290.53,260.08a24.68,24.68,0,0,1,5.31,5.83,2.23,2.23,0,0,0,1.05,1c1.25.45,2.16-1.23,2.33-2.55.44-3.46,0-7.24,2-10.15,1.25-1.89,3.27-3.09,5.22-4.22,6.13-3.56,17.56-5.41,15.61-3.55s-4.32,3.45-5.39,5.92a20.66,20.66,0,0,0,14.31-7.85,7.8,7.8,0,0,1-2.88,6.22c5.83.73,11.79,1.46,17.54.24s11.35-4.76,13.43-10.26c.65-1.72.26-4.44-1.58-4.37l-15.82-9.57s-28.69-5.21-30.65-5.21-26.08,3.91-26.08,3.91l-12.39,13-4.89,11.74L275.44,280l4.14,7.45C283.27,284.28,286.9,272,290.53,260.08Z" transform="translate(-56.78 -63.04)"/><path class="cls-5" d="M291.47,275.78c-5.62.26-8.46-6.2-8.45-10.51a5.81,5.81,0,0,1,3.65-5.53c2.68-1.12,5.51.11,6,2.25s-.94,5.69-.94,7.65S292.71,275.72,291.47,275.78Z" transform="translate(-56.78 -63.04)"/><path class="cls-5" d="M325.76,287c1.14-.95,2.9,1.57,4.16,1.61,1.06,0,2.1-1.08,2.9-1.64,1.44-1,3.89-2,3.12-4.1a12.28,12.28,0,0,0-2.47-3.23,9.61,9.61,0,0,1-2.52-6.2c-.13-4.33,2.29-8,5.5-10.7.25-.2-.11-.56-.35-.35-4.26,3.57-7.39,9.63-4.72,15.12a15.75,15.75,0,0,0,2.49,3.32c.88,1,2.32,2.3,1.29,3.85a13.64,13.64,0,0,1-2.59,1.86c-1.46,1-2.38,1.65-4.35.49-.35-.2-.48-.49-.91-.68a1.54,1.54,0,0,0-1.91.29c-.25.21.11.56.36.36Z" transform="translate(-56.78 -63.04)"/><path class="cls-7" d="M337.59,261.59l1.5-1.52a14.15,14.15,0,0,1,2.52-2.18,4.75,4.75,0,0,1,3.18-.76c-.2,1.16-.39,2.32-.59,3.48a1.86,1.86,0,0,1-.66,1.38,1.9,1.9,0,0,1-.85.2l-5.25.42" transform="translate(-56.78 -63.04)"/><path class="cls-7" d="M327.86,261.73c-.49-.73-.16-1.72-.28-2.6a3.32,3.32,0,0,0-1.73-2.32,8.82,8.82,0,0,0-2.85-.87c-4.71-.84-9.85-1-14,1.38l14.11,3.08a11.45,11.45,0,0,1,4.29,1.55" transform="translate(-56.78 -63.04)"/><path class="cls-8" d="M308.09,266.59c3.27-1.42,5.42-3.15,10.4-2.12a6.78,6.78,0,0,1,5.52,5.87c-.08.15-5.78,1.45-9.05.62a12.91,12.91,0,0,1-6.5-3.91c-.14-.05-.31-.13-.3-.28s.32,0,.18.05" transform="translate(-56.78 -63.04)"/><path class="cls-8" d="M332.34,268.73a11.93,11.93,0,0,1,5.34-2.66,2.85,2.85,0,0,1,1.89.11c1,.55,1.37,2,1.59,3.26a1.73,1.73,0,0,1-.06,1.15,1.25,1.25,0,0,1-.39.37,6.15,6.15,0,0,1-4.83,1.11,5.75,5.75,0,0,1-3.95-3.28" transform="translate(-56.78 -63.04)"/><path class="cls-7" d="M336.74,272c-.17,0-.27-.27-.3-.5-.3-1.77.79-3.73,2.17-3.88a1.3,1.3,0,0,1,1.27.58,2.49,2.49,0,0,1,.3.79,3.79,3.79,0,0,1,0,1.92c-.2.6-.67,1.08-1.16,1" transform="translate(-56.78 -63.04)"/><path class="cls-7" d="M318.7,271.16a1,1,0,0,1-1.21-.27,1.92,1.92,0,0,1-.39-1.25,3.44,3.44,0,0,1,3.24-3.29,1.87,1.87,0,0,1,1.2.33,2.57,2.57,0,0,1,.65,2.05,2.86,2.86,0,0,1-.5,2c-.77.82-2.12.48-3.21.75" transform="translate(-56.78 -63.04)"/><path class="cls-5" d="M308.21,266.81c3.59-1.61,6.86-3.2,10.89-1.92a6.58,6.58,0,0,1,3.93,3.17c.18.32,1,1.76.73,2.17a17,17,0,0,1-2,.37,22.22,22.22,0,0,1-5,.36,11.29,11.29,0,0,1-5.5-1.86,16,16,0,0,1-1.76-1.41c.07.06-1.52-1.18-1.4-.81s.59.18.48-.13l0-.1a.26.26,0,0,0-.31-.18l-.14.06a.25.25,0,0,0-.15.36c.56,1.14,2.47,2.32,3.58,3a11.92,11.92,0,0,0,5.88,1.62c1.14,0,6.41.12,6.85-1.25.2-.62-.51-1.91-.79-2.43a7,7,0,0,0-3.55-3.15c-4.33-1.74-8,0-12,1.73-.29.13,0,.56.25.43Z" transform="translate(-56.78 -63.04)"/><path class="cls-5" d="M332.52,268.91c2.05-1.69,8-4.85,8.31.11.14,2.63-2.94,3.23-4.88,2.81a5.67,5.67,0,0,1-3.81-3.17c-.14-.29-.57,0-.43.25a6,6,0,0,0,5.29,3.53c1.62,0,4.5-.7,4.44-2.7,0-1.49-.68-3.6-2.33-4-2.33-.53-5.26,1.41-6.95,2.78-.25.21.11.56.36.36Z" transform="translate(-56.78 -63.04)"/><path class="cls-9" d="M319.32,292.75l5.82-2.41a1.08,1.08,0,0,1,.78-.1c.35.14.44.6.71.86a1.35,1.35,0,0,0,1.57,0,4.82,4.82,0,0,1,1.51-.74,2,2,0,0,1,1.69.75,5.52,5.52,0,0,1,.89,1.7q-6.42-.15-12.83-.23" transform="translate(-56.78 -63.04)"/><path class="cls-10" d="M319.41,292.6a9.58,9.58,0,0,0,9.36,3.29c1.56-.35,3.19-1.34,3.43-2.92" transform="translate(-56.78 -63.04)"/><path class="cls-5" d="M307.36,303.61l-.29,2.92v5a26.59,26.59,0,0,1-15.28-23.37,24.37,24.37,0,0,1,.08-3.08,10.8,10.8,0,0,0,.34,3.16,14.44,14.44,0,0,0,2.71,5.58,34.4,34.4,0,0,0,6.86,6.44A22.94,22.94,0,0,0,307.36,303.61Z" transform="translate(-56.78 -63.04)"/><path class="cls-11" d="M319.28,292.9a34.9,34.9,0,0,1,7.15-.13c1.91.21,3.85-.36,5.71.21.16,0,.22-.19.07-.24-2-.61-4.37-.17-6.45-.35a38,38,0,0,0-6.48.26c-.16,0-.16.27,0,.25Z" transform="translate(-56.78 -63.04)"/><g class="cls-12"><path class="cls-10" d="M307.59,285.39a13.89,13.89,0,0,1-3.47-3,3.37,3.37,0,0,1-.54-.81,3.61,3.61,0,0,1-.21-1.35,8.08,8.08,0,0,1,.33-2.9,5.25,5.25,0,0,1,3.71-3.16,10.78,10.78,0,0,1,4.92.14,10.14,10.14,0,0,1,3.86,1.54,4.89,4.89,0,0,1,2.08,3.64,5.49,5.49,0,0,1-1.83,3.94,8.49,8.49,0,0,1-9.76,1.44Z" transform="translate(-56.78 -63.04)"/></g><g class="cls-12"><path class="cls-10" d="M341.55,276.33a35.61,35.61,0,0,1-.86,5.63,29.45,29.45,0,0,1-1.33,4.15,10.7,10.7,0,0,1-2.47-6,2.86,2.86,0,0,1,.15-1.51,3.21,3.21,0,0,1,1.54-1.36A10,10,0,0,1,341.55,276.33Z" transform="translate(-56.78 -63.04)"/></g><path class="cls-13" d="M327.18,222.8a43.76,43.76,0,0,1,19.33-2.7c.32,0,.32-.47,0-.5a44.05,44.05,0,0,0-19.46,2.72c-.3.11-.17.59.13.48Z" transform="translate(-56.78 -63.04)"/><path class="cls-13" d="M353.53,221.65a3.6,3.6,0,0,1,1.84.17c.3.1.43-.38.13-.49a4.16,4.16,0,0,0-2.1-.17c-.31.06-.18.54.13.49Z" transform="translate(-56.78 -63.04)"/><path class="cls-13" d="M336.07,229.16a11.56,11.56,0,0,1,6,2.33c1.6,1.23,4.44,4,3.16,6.29-.16.28.27.54.43.26,1.2-2.13-.71-4.57-2.21-6a12.15,12.15,0,0,0-7.38-3.36c-.32,0-.32.47,0,.5Z" transform="translate(-56.78 -63.04)"/><path class="cls-13" d="M349.88,237.13a5.54,5.54,0,0,1-1.12,5c-.21.24.14.6.35.35a6.06,6.06,0,0,0,1.25-5.47c-.07-.31-.56-.17-.48.14Z" transform="translate(-56.78 -63.04)"/><path class="cls-13" d="M339,245.87,342.5,244c.28-.15,0-.58-.25-.43l-3.51,1.89a.25.25,0,0,0,.25.43Z" transform="translate(-56.78 -63.04)"/><path class="cls-13" d="M327.92,242.42a5.93,5.93,0,0,0,2.72-6.09c-.06-.32-.54-.19-.49.13a5.39,5.39,0,0,1-2.49,5.53.25.25,0,0,0,.26.43Z" transform="translate(-56.78 -63.04)"/><path class="cls-13" d="M318.2,230.12c2.25,7.13-10.35,8.12-14.78,9.07-4.21.9-8.32,2.36-11.24,5.67-.21.24.14.59.35.35,4.58-5.18,11.63-5.4,17.9-6.93,3.85-.95,9.87-3.17,8.26-8.29-.1-.31-.58-.18-.49.13Z" transform="translate(-56.78 -63.04)"/><path class="cls-13" d="M302.33,244.85a13.61,13.61,0,0,0-6.94,4.85c-.19.26.24.51.43.26a13,13,0,0,1,6.64-4.62c.31-.1.17-.58-.13-.49Z" transform="translate(-56.78 -63.04)"/><path class="cls-13" d="M292.15,221.9c-5.38.91-9.42,4.57-13.14,8.3a.25.25,0,0,0,.35.36c3.67-3.68,7.62-7.28,12.92-8.17.32-.06.18-.54-.13-.49Z" transform="translate(-56.78 -63.04)"/><path class="cls-13" d="M294.5,226.6a22.9,22.9,0,0,0-9.48,6.11c-.22.23.13.59.35.35a22.44,22.44,0,0,1,9.27-6c.3-.1.17-.58-.14-.48Z" transform="translate(-56.78 -63.04)"/><path class="cls-13" d="M274.7,239.81c-2.16.85-3.16,3.62-4,5.6a27.43,27.43,0,0,0-1.93,9c0,.32.48.32.5,0a27,27,0,0,1,1.32-7.29c.7-2.08,2-6,4.23-6.84.29-.12.16-.6-.14-.49Z" transform="translate(-56.78 -63.04)"/><path class="cls-13" d="M276.72,248.19a17.42,17.42,0,0,0-3.39,11c0,.32.51.32.5,0a17,17,0,0,1,3.32-10.75c.19-.26-.25-.51-.43-.26Z" transform="translate(-56.78 -63.04)"/><path class="cls-2" d="M337.4,364a52.87,52.87,0,0,1-10.39.39c-7.52-.28-14.95-.22-22.48.09l-48.54,2c-1.48.06-1.46-2.23,0-2.28l46.29-1.91c7.44-.31,14.86-.63,22.32-.29a60.59,60.59,0,0,0,12.71-.28C337.34,362.48,337.38,363.24,337.4,364Z" transform="translate(-56.78 -63.04)"/><path class="cls-2" d="M337.79,382c-2.24.16-4.49.33-6.73.51l-28.36,2.2L246,389.13c-1.48.12-1.46-2.17,0-2.28l56.68-4.4,28.36-2.21c2.21-.17,4.43-.34,6.65-.49v.82A13.27,13.27,0,0,0,337.79,382Z" transform="translate(-56.78 -63.04)"/><path class="cls-2" d="M341.46,399.05l-89.79,5.05c-1.48.08-1.47-2.21,0-2.29l89.2-5C341.06,397.54,341.25,398.28,341.46,399.05Z" transform="translate(-56.78 -63.04)"/><path class="cls-2" d="M348.19,422.41l-2.24.12c-11.31.59-22.63,1.15-34,1.57s-22.71.67-34.06.59c-5.6,0-11.22-.11-16.82-.38a40.55,40.55,0,0,1-5.86-.61,19.59,19.59,0,0,1-6.29-2.2,1.15,1.15,0,0,1,1.15-2,16.59,16.59,0,0,0,3.36,1.42h0c3.46,1.05,7.19,1.09,10.82,1.2,5.3.17,10.59.25,15.89.27,10.6,0,21.2-.21,31.79-.6s21.18-.92,31.77-1.45l3.75-.19Z" transform="translate(-56.78 -63.04)"/><path class="cls-2" d="M336,346.5c-11.8,1.08-23.71,1.41-35.5,2-18.58,1-37.23,1.54-55.76-.58-1.44-.17-1.45-2.45,0-2.28,18.16,2.08,36.44,1.56,54.65.63,12-.63,24.24-.95,36.31-2.05C335.82,345,335.93,345.75,336,346.5Z" transform="translate(-56.78 -63.04)"/><path class="cls-5" d="M332,307.93s16.78,77.4,19.83,88.46,10.44,22.46,28.58,14.86c14.1-5.91.38-32.39-7.24-46.49s-31.25-58.19-31.25-58.19Z" transform="translate(-56.78 -63.04)"/><path class="cls-14" d="M272.48,348.16c0,.79,0,1.58-.1,2.35s-.11,1.62-.19,2.42c-.37,3.57-1,7.12-1.62,10.67-.13.77-.26,1.53-.37,2.29s-.27,1.78-.39,2.68c-.38,2.9-.6,5.82-.74,8.74-.05.81-.07,1.63-.09,2.44-.15,4.16-.14,8.34-.17,12.52,0,.81,0,1.61,0,2.42,0,2.07,0,4.14-.12,6.21-.14,3.55-.4,7.19-1.8,10.47a24.64,24.64,0,0,1-5.56,7.59A55.69,55.69,0,0,1,243,431c-4.38,1.78-10.06,2.71-13.29-.74-1.54-1.67-2.13-4-2.56-6.22a102.76,102.76,0,0,1-1.9-20.23c0-1.14,0-2.26.06-3.39a144.37,144.37,0,0,1,2.27-21.07c.16-.91.34-1.82.51-2.72.85-4.41,1.88-8.79,3.05-13.14.22-.86.46-1.73.7-2.59.55-2,1.13-4,1.72-5.95.64-2.12,1.32-4.25,2.05-6.36.27-.82.57-1.62.87-2.42A75.82,75.82,0,0,1,242,334.35c.49-.86,1-1.69,1.55-2.52a43.79,43.79,0,0,1,6.36-7.69L247,329c4.64-5.05,13.48-4.28,18.55.33a18.62,18.62,0,0,1,4.27,5.84A21,21,0,0,1,271,338,31.84,31.84,0,0,1,272.48,348.16Z" transform="translate(-56.78 -63.04)"/><path class="cls-6" d="M257.3,397.53c3.25-.24,96,8.38,96,8.38l2.28,10.67s-111.28,17.92-122,15.25S226.43,399.82,257.3,397.53Z" transform="translate(-56.78 -63.04)"/><path class="cls-6" d="M353.39,405.69c5.51-1.92,11.49-3.41,17.15-2s10.17,5.5,14,9.82,7.35,9.08,12,12.53c-3.11.43-6-1.7-8.09-4s-4-5-6.77-6.46c-.79,1.53.59,3.24,1.86,4.4l6.58,6c-3,1.06-6.17-1.23-8.17-3.73s-3.71-5.51-6.67-6.74a19.77,19.77,0,0,0,4.37,10.91c-2.2,1.21-4.79-.92-6-3.13s-2.09-4.91-4.39-5.91a8.51,8.51,0,0,0-3.86-.39l-9.8.53s-2.4,1.65-5.73-2.83S353.39,405.69,353.39,405.69Z" transform="translate(-56.78 -63.04)"/><path class="cls-6" d="M376.18,407.44l11.29,2.5a11,11,0,0,1,3.08,1,11.77,11.77,0,0,1,3.19,3.18c2.24,2.88,4.75,5.69,8,7.32a7,7,0,0,1-6.6-.71c-1.51-1.05-2.53-2.65-3.88-3.9-3.1-2.85-7.55-3.56-11.72-4.14" transform="translate(-56.78 -63.04)"/><path class="cls-6" d="M369.74,404l4-1.09a14.57,14.57,0,0,1,2.91-.58,47.38,47.38,0,0,1,5,.42,21.62,21.62,0,0,0,6.73-1.19,4.37,4.37,0,0,1-2.92,4.2c-1.83.61-3.88-.08-5.76.4s-3.39,2.16-5.29,2.8" transform="translate(-56.78 -63.04)"/><path class="cls-6" d="M320.84,333.22c-1.15,2.63-2.47,5.39-4.94,6.84a12.37,12.37,0,0,1-4.59,1.35c-7.5,1.1-15.49.71-22.13-3-9-5-14.36-15.2-23.76-19.29a25.3,25.3,0,0,0-7.21-1.87c6.4-3.74,13.58-6.48,20.55-9,0,0,30.37,6.35,44.41,12.53C324.14,324.87,322.53,329.29,320.84,333.22Z" transform="translate(-56.78 -63.04)"/><path class="cls-7" d="M278.25,222.28c-5.83-1.13-12.5,1.77-17.51-1.43a9.87,9.87,0,0,1-4.25-7.69,15.17,15.17,0,0,1,2.4-8.65A20.58,20.58,0,0,1,289.13,199c3.23,2.52,5.78,7,3.9,10.65a11.49,11.49,0,0,1-2.52,3l-12.75,11.91" transform="translate(-56.78 -63.04)"/><path class="cls-15" d="M290.15,272.56a6,6,0,0,1,4.86,1,15.93,15.93,0,0,1,3.59,3.6,21.44,21.44,0,0,1,2.47,3.67,12.8,12.8,0,0,1-1.21,12.72,15.09,15.09,0,0,1-11.44,6.07A18.42,18.42,0,0,1,276,295.34a8.86,8.86,0,0,1-3.89-7.47,14.59,14.59,0,0,1,1.7-8,9.11,9.11,0,0,1,6.53-4.6A8.58,8.58,0,0,0,276.9,279a14.49,14.49,0,0,0-1.9,7.62,9.89,9.89,0,0,0,3.3,7,10.66,10.66,0,0,0,6.17,2.33,13.36,13.36,0,0,0,9.91-3.28,11.42,11.42,0,0,0,3.71-9.65,10,10,0,0,0-6.24-8.07,4.35,4.35,0,0,1-1.64-.81,1.16,1.16,0,0,1-.11-1.64" transform="translate(-56.78 -63.04)"/><path class="cls-15" d="M282.05,265.39a8.71,8.71,0,0,1,.22-2,4.73,4.73,0,0,1,1-2.58,5.63,5.63,0,0,1,3.07.19.4.4,0,0,1,.18.1.44.44,0,0,1,0,.34,14.85,14.85,0,0,0-.26,4.36c0,.08,0,.17-.05.22a.22.22,0,0,1-.13,0,26.64,26.64,0,0,1-3.09.15.83.83,0,0,1-.75-.28" transform="translate(-56.78 -63.04)"/><path class="cls-2" d="M268.81,392.27c0,.81,0,1.61,0,2.42A41.2,41.2,0,0,0,242.58,393a36.15,36.15,0,0,0-11.77,5.76,35.54,35.54,0,0,0-4.91,4.43c-.09.11-.31.35-.61.67,0-1.14,0-2.26.06-3.39A38.15,38.15,0,0,1,238.27,392C248.12,388.12,259,388.65,268.81,392.27Z" transform="translate(-56.78 -63.04)"/><path class="cls-2" d="M269.07,377.31c-.05.81-.07,1.63-.09,2.44a57.07,57.07,0,0,0-21.31-4.55,47.21,47.21,0,0,0-20,4.18c.16-.91.34-1.82.51-2.72a49.79,49.79,0,0,1,18.62-3.75A58.77,58.77,0,0,1,269.07,377.31Z" transform="translate(-56.78 -63.04)"/><path class="cls-2" d="M270.57,363.6c-.13.77-.26,1.53-.37,2.29A68.81,68.81,0,0,0,253.66,362c-7.32-.78-15.28-.65-22.48,1.52.22-.86.46-1.73.7-2.59a61.6,61.6,0,0,1,21.78-1.21A72.46,72.46,0,0,1,270.57,363.6Z" transform="translate(-56.78 -63.04)"/><path class="cls-2" d="M272.38,350.51c0,.82-.11,1.62-.19,2.42a54.44,54.44,0,0,0-12.42-3.64c-7.74-1.38-16.19-2.05-24.12-.67.27-.82.57-1.62.87-2.42a75.88,75.88,0,0,1,23,.74A58.21,58.21,0,0,1,272.38,350.51Z" transform="translate(-56.78 -63.04)"/><path class="cls-2" d="M271,338c-9.34-3.45-19.22-5.08-29-3.68.49-.86,1-1.69,1.55-2.52a61.73,61.73,0,0,1,26.34,3.38A21,21,0,0,1,271,338Z" transform="translate(-56.78 -63.04)"/><path class="cls-15" d="M359.77,272.36q3.92-8.16,8.33-16.05a.5.5,0,0,0-.87-.5q-4.41,7.89-8.33,16c-.27.58.59,1.09.87.51Z" transform="translate(-56.78 -63.04)"/><path class="cls-15" d="M363.85,276.94q3.78-3.46,7.82-6.63c.51-.4-.2-1.1-.71-.71q-4,3.16-7.82,6.63c-.47.44.24,1.14.71.71Z" transform="translate(-56.78 -63.04)"/><path class="cls-15" d="M375.72,268.06l9.48-6.56c.52-.36,0-1.23-.51-.86l-9.47,6.55c-.53.37,0,1.23.5.87Z" transform="translate(-56.78 -63.04)"/><path class="cls-15" d="M367.17,284.26l15.13-4.76c2.27-.71,4.54-1.48,6.86-2s4.73-.7,7.06-1.27a.5.5,0,0,0-.27-1c-2.32.57-4.72.73-7.05,1.27s-4.59,1.31-6.87,2l-15.12,4.76c-.62.19-.35,1.15.26,1Z" transform="translate(-56.78 -63.04)"/><path class="cls-15" d="M365.51,293.06l23.29,2.2c.64.06.64-.94,0-1l-23.29-2.2c-.64-.06-.64.94,0,1Z" transform="translate(-56.78 -63.04)"/><path class="cls-15" d="M363.89,301.17q6.74,2.76,13.18,6.14c.57.3,1.07-.56.5-.86Q371,303,364.16,300.2c-.6-.24-.86.72-.27,1Z" transform="translate(-56.78 -63.04)"/><path class="cls-15" d="M395.64,295.82l3.82.37c.64.06.63-.94,0-1l-3.82-.37c-.64-.06-.63.94,0,1Z" transform="translate(-56.78 -63.04)"/><rect class="cls-16" x="2.6" y="235.76" width="162.32" height="13.96"/><rect class="cls-3" x="2.6" y="258.8" width="162.32" height="13.96"/><rect class="cls-2" x="2.6" y="258.8" width="101.13" height="13.96"/><rect class="cls-3" x="2.6" y="282.89" width="162.32" height="13.96"/><rect class="cls-17" x="2.6" y="282.89" width="35.82" height="13.96"/><path class="cls-4" d="M549.42,365.13l-48.25,65s-100.79-.32-103.56,1.57l4.14-5.41,46.71-61.22a9.41,9.41,0,0,1,6.36-3.65,9,9,0,0,1,1.16-.07h91.54A2.38,2.38,0,0,1,549.42,365.13Z" transform="translate(-56.78 -63.04)"/><path class="cls-4" d="M497.61,433.73H348.19a3.62,3.62,0,0,1-3.62-3.62h0a3.62,3.62,0,0,1,3.62-3.62H497.61a3.62,3.62,0,0,1,3.62,3.62h0A3.62,3.62,0,0,1,497.61,433.73Z" transform="translate(-56.78 -63.04)"/><path class="cls-18" d="M456.15,366.59,410.07,426.5l-8.32-.23,46.71-61.22a9.41,9.41,0,0,1,6.36-3.65C456.55,363.45,456.15,366.59,456.15,366.59Z" transform="translate(-56.78 -63.04)"/><path class="cls-19" d="M613.24,431.45H139.92a7.43,7.43,0,0,0-7.43,7.43h0a7.43,7.43,0,0,0,7.43,7.43H613.24a7.43,7.43,0,0,0,7.43-7.43h0A7.43,7.43,0,0,0,613.24,431.45Z" transform="translate(-56.78 -63.04)"/><path class="cls-20" d="M620.65,439.45a7.43,7.43,0,0,1-7.41,6.86H139.92a7.39,7.39,0,0,1-7.4-6.86Z" transform="translate(-56.78 -63.04)"/><rect class="cls-15" x="408.23" y="232.31" width="104.37" height="28.72" rx="4.12"/><polygon class="cls-15" points="408.23 255.93 408.23 273.38 424.13 256.52 408.23 255.93"/><line class="cls-21" x1="417.8" y1="241.78" x2="503.34" y2="241.78"/><line class="cls-21" x1="417.8" y1="250.42" x2="503.34" y2="250.42"/><rect class="cls-19" x="417.53" y="249.27" width="104.37" height="28.72" rx="4.12" transform="translate(882.66 464.21) rotate(180)"/><polygon class="cls-19" points="465.13 209.85 465.13 227.3 449.22 210.44 465.13 209.85"/><line class="cls-21" x1="455.55" y1="195.7" x2="370.02" y2="195.7"/><line class="cls-21" x1="455.55" y1="204.34" x2="370.02" y2="204.34"/><rect class="cls-3" x="467.16" y="349.86" width="90.38" height="19.32"/><path class="cls-22" d="M524.12,429.78c15.41.47,30.64-.49,46-1.61a121.45,121.45,0,0,1,22.4.18c7.24.79,14.45,1.82,21.72.77.64-.09.37-1.06-.26-1-7.49,1.09-15-.13-22.4-.91a124.7,124.7,0,0,0-22.45,0c-15,1.14-29.94,2-45,1.54a.5.5,0,0,0,0,1Z" transform="translate(-56.78 -63.04)"/><path class="cls-22" d="M524.65,425.34c15.06.32,30.1.52,45.15-.12,14.84-.64,29.69-1.62,44.54-.73.64,0,.64-1,0-1-14.85-.89-29.7.09-44.54.73-15,.64-30.09.44-45.15.12a.5.5,0,0,0,0,1Z" transform="translate(-56.78 -63.04)"/><path class="cls-22" d="M524.41,421.49c7.46-1.34,15.24-.42,22.76-.19s15,.38,22.44.44q22.46.18,44.89-.68c.64,0,.64-1,0-1q-22.93.87-45.88.67-11.48-.09-22.94-.48c-7.15-.23-14.44-1-21.53.27-.64.11-.37,1.08.26,1Z" transform="translate(-56.78 -63.04)"/><path class="cls-22" d="M524,416.91c15,.77,30.07.09,45.11.08,14.87,0,29.9,2,44.73.41.63-.06.64-1.06,0-1C599,418,583.93,416,569.06,416c-15,0-30.08.69-45.11-.08-.65,0-.64,1,0,1Z" transform="translate(-56.78 -63.04)"/><path class="cls-22" d="M614.32,412.89v8.83l-3.65,1.56c-2.74,1.19-5.5,2.37-8.18,3.72a75.18,75.18,0,0,0-8.69,5.22h-13c-1-1.93-2.08-3.8-2.94-5.78-4.23-9.76-9.35-12.48-9.35-12.48a32.69,32.69,0,0,0-5.19-1.07Z" transform="translate(-56.78 -63.04)"/><path class="cls-14" d="M580,425.47c1,2.22,2.21,4.32,3.32,6.48,1.27,2.49,2.57,5.11,2.48,7.91A71.91,71.91,0,0,1,604.63,426c2.67-1.35,5.42-2.53,8.17-3.72l8.26-3.55c-1.53-3.72-3.31-7.72-6.86-9.61-2.55-1.36-5.57-1.37-8.45-1.31-16,.33-47.69,5.14-47.69,5.14h12.56S575.74,415.71,580,425.47Z" transform="translate(-56.78 -63.04)"/><path class="cls-15" d="M111.15,335.16h35.06a0,0,0,0,1,0,0v23.22a9.94,9.94,0,0,1-9.94,9.94H121.09a9.94,9.94,0,0,1-9.94-9.94V335.16A0,0,0,0,1,111.15,335.16Z"/><path class="cls-23" d="M196.15,398.2c.91,10.62,1.48,25.19-5,33.15h.5A11.36,11.36,0,0,0,203,420V398.2Z" transform="translate(-56.78 -63.04)"/><path class="cls-24" d="M168.46,403.15c-.43,0-10-2.57-11.15,6.15s8.72,14.86,14.29,14.86" transform="translate(-56.78 -63.04)"/><path class="cls-25" d="M188.41,394.71c-4-.9-5.78-4.82-4.81-8.66.84-3.31,3.22-5.78,5.51-8.17,1.41-1.46,2.85-3.07,3.21-5.14.4-2.29-.7-4.39-1.77-6.33-.31-.56-1.17-.06-.86.51,1.21,2.2,2.39,4.66,1.15,7.14a17.05,17.05,0,0,1-3.22,3.92,19.67,19.67,0,0,0-4.63,6.68c-1.68,4.6.07,9.87,5.15,11,.63.14.9-.83.27-1Z" transform="translate(-56.78 -63.04)"/><path class="cls-25" d="M194.11,390.58c-3.89-.61-3.59-5.15-1.81-7.65,1.39-2,3.45-3.22,5-5,1.79-2.09,2.58-5.06.57-7.28-.44-.47-1.14.24-.71.71,2.83,3.11-1.06,6.41-3.24,8.39a12.32,12.32,0,0,0-3.61,4.75c-1,2.91.23,6.55,3.54,7.08.63.09.9-.87.26-1Z" transform="translate(-56.78 -63.04)"/><path class="cls-25" d="M177.65,387.74c-2.18.09-.69-4.59-.3-5.33a8.35,8.35,0,0,1,1.76-2.25c1.3-1.21,3-2,4.2-3.27,1.57-1.68,2.33-4.06.94-6.06-.36-.53-1.23,0-.86.5,2.21,3.21-1.83,5.7-4,7.33a9.3,9.3,0,0,0-3.25,4c-.65,1.63-1.43,6.21,1.5,6.09.64,0,.65-1,0-1Z" transform="translate(-56.78 -63.04)"/><rect class="cls-3" x="320.61" y="49.01" width="166.51" height="111.01" rx="12.57"/><path class="cls-16" d="M543.9,124.61v6.29H377.39v-6.29A12.56,12.56,0,0,1,390,112.05H531.33A12.56,12.56,0,0,1,543.9,124.61Z" transform="translate(-56.78 -63.04)"/><line class="cls-26" x1="330.38" y1="62.27" x2="337.71" y2="54.94"/><line class="cls-26" x1="330.38" y1="54.94" x2="337.71" y2="62.27"/><rect class="cls-19" x="336.67" y="79.73" width="25.83" height="65.63"/><rect class="cls-2" x="375.06" y="97.18" width="25.83" height="48.17"/><rect class="cls-15" x="412.76" y="82.52" width="25.83" height="62.83"/><rect class="cls-19" x="449.07" y="128.6" width="25.83" height="16.76"/><rect class="cls-27" x="186.91" y="2.32" width="99.95" height="99.95"/><path class="cls-15" d="M354.11,160.22H268c-4.43-4.51-11.33-11.48-14.95-15l-.62-.61L243.7,65.36h99.94Z" transform="translate(-56.78 -63.04)"/><path class="cls-27" d="M270.22,148,268,160.22c-4.43-4.51-11.33-11.48-14.95-15Z" transform="translate(-56.78 -63.04)"/><path class="cls-23" d="M252.44,144.58c4.71,4.78,12.19,12.33,15.58,15.64l-1.73-15.64Z" transform="translate(-56.78 -63.04)"/><path class="cls-28" d="M294.45,76.42c2.09-2,4.28-3.8,6.53-5.57l.55.88-6.48,5S293.75,77.07,294.45,76.42Z" transform="translate(-56.78 -63.04)"/><path class="cls-2" d="M304.79,71.43a4,4,0,1,1-4-4A4,4,0,0,1,304.79,71.43Z" transform="translate(-56.78 -63.04)"/><polygon class="cls-2" points="241.05 5.62 244.27 2.02 251 8.65 246.34 11.63 241.05 5.62"/><path class="cls-2" d="M309.75,67.84A4.81,4.81,0,1,1,305,63,4.8,4.8,0,0,1,309.75,67.84Z" transform="translate(-56.78 -63.04)"/><line class="cls-26" x1="207.51" y1="31.03" x2="277.15" y2="31.03"/><line class="cls-26" x1="208.73" y1="43.95" x2="280.82" y2="43.95"/><line class="cls-26" x1="212.75" y1="57.74" x2="283.08" y2="57.74"/><path class="cls-3" d="M255.21,95.87h.18a2.5,2.5,0,0,0,0-5h-.18a2.5,2.5,0,0,0,0,5Z" transform="translate(-56.78 -63.04)"/><path class="cls-3" d="M257.13,104.48H257a2.5,2.5,0,1,0,0,5h.17a2.5,2.5,0,0,0,0-5Z" transform="translate(-56.78 -63.04)"/><path class="cls-3" d="M259.75,123.1c3.22,0,3.23-5,0-5s-3.22,5,0,5Z" transform="translate(-56.78 -63.04)"/><path class="cls-2" d="M585.05,389.6A88.61,88.61,0,0,0,643,341.13c.87-1.91-2-3.59-2.85-1.66a85.46,85.46,0,0,1-55.94,47c-2,.53-1.18,3.7.87,3.17Z" transform="translate(-56.78 -63.04)"/><path class="cls-2" d="M634.34,337.34a52.76,52.76,0,0,1,8.72-7.77c.94-.66,2.27-1.29,3.14-.54a2.66,2.66,0,0,1,.69,1.89l1.32,14.29-12.94-7.33" transform="translate(-56.78 -63.04)"/><path class="cls-15" d="M550.64,351.45a22.93,22.93,0,0,1,8.16,22c-.11.63.85.9,1,.27a24,24,0,0,0-8.42-22.95c-.5-.4-1.21.3-.71.71Z" transform="translate(-56.78 -63.04)"/><path class="cls-15" d="M559.69,348.71a18.29,18.29,0,0,1,8.07,17.81c-.09.63.88.9,1,.27a19.33,19.33,0,0,0-8.54-18.94c-.54-.35-1,.51-.5.86Z" transform="translate(-56.78 -63.04)"/><path class="cls-16" d="M437.33,359.62l-10.44-12.4c-.41-.49-1.11.22-.7.71l10.43,12.4c.41.49,1.12-.22.71-.71Z" transform="translate(-56.78 -63.04)"/><path class="cls-16" d="M413.68,382.2l-10.62-2.5c-.63-.15-.9.81-.27,1l10.62,2.51c.63.14.89-.82.27-1Z" transform="translate(-56.78 -63.04)"/><path class="cls-16" d="M409.14,363.15l10.44,8.74c.49.42,1.2-.29.7-.7l-10.43-8.75c-.49-.41-1.2.3-.71.71Z" transform="translate(-56.78 -63.04)"/><path class="cls-16" d="M449.73,355.85q-1.14-7.56-2.27-15.11c-.1-.63-1.06-.37-1,.27q1.14,7.55,2.27,15.1c.1.64,1.06.37,1-.26Z" transform="translate(-56.78 -63.04)"/><path class="cls-3" d="M142.83,265.46A75.21,75.21,0,1,1,218,190.26,75.29,75.29,0,0,1,142.83,265.46Zm0-124.54a49.34,49.34,0,1,0,49.34,49.34A49.39,49.39,0,0,0,142.83,140.92Z" transform="translate(-56.78 -63.04)"/><path class="cls-2" d="M160.44,117.16c-1.38,8.6-2.22,17.33-2.84,26a49.34,49.34,0,1,1-61.82,32.25l-3.78-.9a204.22,204.22,0,0,1-21.24-5.72,75.2,75.2,0,1,0,89.68-51.65Z" transform="translate(-56.78 -63.04)"/><path class="cls-17" d="M180.35,125.12c-2.25,3.19-4.52,6.34-7,9.34-3,3.65-6.43,7.3-9.4,11.21a49.33,49.33,0,0,1-16.39,93.7c.44,6,.44,12.19.7,18.19.11,2.55.23,5.11.38,7.66a75.16,75.16,0,0,0,31.73-140.1Z" transform="translate(-56.78 -63.04)"/><path class="cls-15" d="M144.1,141a49.26,49.26,0,0,1,38,19.45,199.82,199.82,0,0,1,16-13.21q2-1.56,4.07-3.07a75.12,75.12,0,0,0-59-29.07C143.42,118.21,144.1,135.81,144.1,141Z" transform="translate(-56.78 -63.04)"/><text class="cls-29" transform="translate(78.08 144.14)">%</text><path class="cls-15" d="M69.14,141.32l-11.48-9.59c-.5-.41-1.21.29-.71.7L68.43,142c.49.41,1.2-.3.71-.71Z" transform="translate(-56.78 -63.04)"/><path class="cls-15" d="M79.19,126.29q-3.69-5.22-7.37-10.43c-.37-.52-1.24,0-.87.51l7.38,10.42c.37.52,1.23,0,.86-.5Z" transform="translate(-56.78 -63.04)"/><path class="cls-15" d="M90,116.12a31.78,31.78,0,0,1-4.1-8.4c-.2-.61-1.16-.35-1,.27a33,33,0,0,0,4.2,8.63c.36.53,1.23,0,.87-.5Z" transform="translate(-56.78 -63.04)"/><path class="cls-15" d="M536.58,99.4a22.66,22.66,0,0,1,23.56,19.11c.08.63,1.05.36,1-.27-1.62-11.67-12.78-20.67-24.52-19.84-.64,0-.65,1,0,1Z" transform="translate(-56.78 -63.04)"/><path class="cls-15" d="M549.67,91.75a22.29,22.29,0,0,1,11.72,6.65c.44.47,1.15-.24.71-.71a23.31,23.31,0,0,0-12.17-6.91c-.62-.14-.89.83-.26,1Z" transform="translate(-56.78 -63.04)"/><polygon class="cls-30" points="601.09 138.9 515.74 138.9 558.68 168.39 601.09 138.9"/><polygon class="cls-30" points="601.09 139.07 515.74 139.07 558.68 109.57 601.09 139.07"/><rect class="cls-3" x="523.25" y="117.6" width="70.86" height="67.02"/><polygon class="cls-15" points="558.68 168.39 515.74 138.9 515.74 201.21 601.09 201.21 601.09 138.9 558.68 168.39"/><path class="cls-30" d="M574.51,263.5c6.79-5.13,14-9.63,21.08-14.34,3.52-2.35,7-4.76,10.38-7.33q2.24-1.7,4.38-3.5c1.58-1.33,3-3.08,4.71-4.25,1.26-.87,1.25-.44,2.37.63.64.6,1.27,1.19,1.93,1.76a36.42,36.42,0,0,0,4.94,3.71c3.68,2.28,7.62,4.1,11.31,6.36a112.33,112.33,0,0,1,21.08,16.79c.45.46,1.16-.25.7-.71A113.31,113.31,0,0,0,638,246.84c-3.55-2.27-7.26-4.2-10.94-6.24a50.15,50.15,0,0,1-10.77-8.42.52.52,0,0,0-.71,0c-12.22,12.25-27.84,20.1-41.55,30.45-.5.38,0,1.25.51.87Z" transform="translate(-56.78 -63.04)"/><line class="cls-31" x1="528.83" y1="128.95" x2="589.22" y2="128.95"/><line class="cls-31" x1="528.83" y1="135.23" x2="589.22" y2="135.23"/><line class="cls-31" x1="528.83" y1="141.51" x2="589.22" y2="141.51"/><circle class="cls-2" cx="657.7" cy="264.59" r="20.6" transform="matrix(0.5, -0.87, 0.87, 0.5, 45.17, 641.69)"/><text class="cls-32" transform="translate(593.41 211.47)">20</text><path class="cls-15" d="M680.64,240.94a53.55,53.55,0,0,0,14.8-9.82c.47-.44-.24-1.14-.71-.7a52.22,52.22,0,0,1-14.6,9.65c-.58.26-.08,1.13.51.87Z" transform="translate(-56.78 -63.04)"/><path class="cls-15" d="M691.6,249.06l18.28-5.13a.5.5,0,0,0-.26-1l-18.28,5.13a.5.5,0,0,0,.26,1Z" transform="translate(-56.78 -63.04)"/><path class="cls-15" d="M690.16,266.2a65.7,65.7,0,0,1,13.3.39c.63.08.63-.92,0-1a65.7,65.7,0,0,0-13.3-.39c-.63.05-.64,1.05,0,1Z" transform="translate(-56.78 -63.04)"/><path class="cls-15" d="M684.21,285.86l13.55,6.37c.58.27,1.09-.59.51-.87L684.71,285c-.58-.27-1.09.59-.5.86Z" transform="translate(-56.78 -63.04)"/><path class="cls-15" d="M675.66,299a45.54,45.54,0,0,1,7.9,10.84c.29.57,1.16.06.86-.51a46.7,46.7,0,0,0-8-11,.5.5,0,0,0-.71.7Z" transform="translate(-56.78 -63.04)"/></svg>